<?xml version="1.0" encoding="utf-8" standalone="no"?>
<!DOCTYPE svg PUBLIC "-//W3C//DTD SVG 1.1//EN"
  "http://www.w3.org/Graphics/SVG/1.1/DTD/svg11.dtd">
<svg xmlns:xlink="http://www.w3.org/1999/xlink" width="999.945312pt" height="423.220344pt" viewBox="0 0 999.945312 423.220344" xmlns="http://www.w3.org/2000/svg" version="1.1">
 <metadata>
  <rdf:RDF xmlns:dc="http://purl.org/dc/elements/1.1/" xmlns:cc="http://creativecommons.org/ns#" xmlns:rdf="http://www.w3.org/1999/02/22-rdf-syntax-ns#">
   <cc:Work>
    <dc:type rdf:resource="http://purl.org/dc/dcmitype/StillImage"/>
    <dc:date>2026-07-02T10:29:59.403604</dc:date>
    <dc:format>image/svg+xml</dc:format>
    <dc:creator>
     <cc:Agent>
      <dc:title>Matplotlib v3.11.0, https://matplotlib.org/</dc:title>
     </cc:Agent>
    </dc:creator>
   </cc:Work>
  </rdf:RDF>
 </metadata>
 <defs>
  <style type="text/css">*{stroke-linejoin: round; stroke-linecap: butt}</style>
 </defs>
 <g id="figure_1">
  <g id="patch_1">
   <path d="M 0 423.220344 
L 999.945312 423.220344 
L 999.945312 0 
L 0 0 
z
" style="fill: #ffffff"/>
  </g>
  <g id="axes_1">
   <g id="patch_2">
    <path d="M 57.668125 363.934001 
L 992.745313 363.934001 
L 992.745313 55.163437 
L 57.668125 55.163437 
z
" style="fill: #ffffff"/>
   </g>
   <g id="matplotlib.axis_1">
    <g id="xtick_1">
     <g id="line2d_1">
      <defs>
       <path id="m6c68218068" d="M 0 0 
L 0 3.5 
" style="stroke: #000000; stroke-width: 0.8"/>
      </defs>
      <g>
       <use xlink:href="#m6c68218068" x="111.314875" y="363.934001" style="stroke: #000000; stroke-width: 0.8"/>
      </g>
     </g>
     <g id="text_1">
      <!-- pypdf -->
      <g transform="translate(89.474667 396.448402) rotate(-45) scale(0.1 -0.1)">
       <defs>
        <path id="DejaVuSans-53" d="M 1159 525 
L 1159 -1331 
L 581 -1331 
L 581 3500 
L 1159 3500 
L 1159 2969 
Q 1341 3281 1617 3432 
Q 1894 3584 2278 3584 
Q 2916 3584 3314 3078 
Q 3713 2572 3713 1747 
Q 3713 922 3314 415 
Q 2916 -91 2278 -91 
Q 1894 -91 1617 61 
Q 1341 213 1159 525 
z
M 3116 1747 
Q 3116 2381 2855 2742 
Q 2594 3103 2138 3103 
Q 1681 3103 1420 2742 
Q 1159 2381 1159 1747 
Q 1159 1113 1420 752 
Q 1681 391 2138 391 
Q 2594 391 2855 752 
Q 3116 1113 3116 1747 
z
" transform="scale(0.015625)"/>
        <path id="DejaVuSans-5c" d="M 2059 -325 
Q 1816 -950 1584 -1140 
Q 1353 -1331 966 -1331 
L 506 -1331 
L 506 -850 
L 844 -850 
Q 1081 -850 1212 -737 
Q 1344 -625 1503 -206 
L 1606 56 
L 191 3500 
L 800 3500 
L 1894 763 
L 2988 3500 
L 3597 3500 
L 2059 -325 
z
" transform="scale(0.015625)"/>
        <path id="DejaVuSans-47" d="M 2906 2969 
L 2906 4863 
L 3481 4863 
L 3481 0 
L 2906 0 
L 2906 525 
Q 2725 213 2448 61 
Q 2172 -91 1784 -91 
Q 1150 -91 751 415 
Q 353 922 353 1747 
Q 353 2572 751 3078 
Q 1150 3584 1784 3584 
Q 2172 3584 2448 3432 
Q 2725 3281 2906 2969 
z
M 947 1747 
Q 947 1113 1208 752 
Q 1469 391 1925 391 
Q 2381 391 2643 752 
Q 2906 1113 2906 1747 
Q 2906 2381 2643 2742 
Q 2381 3103 1925 3103 
Q 1469 3103 1208 2742 
Q 947 2381 947 1747 
z
" transform="scale(0.015625)"/>
        <path id="DejaVuSans-49" d="M 2375 4863 
L 2375 4384 
L 1825 4384 
Q 1516 4384 1395 4259 
Q 1275 4134 1275 3809 
L 1275 3500 
L 2222 3500 
L 2222 3053 
L 1275 3053 
L 1275 0 
L 697 0 
L 697 3053 
L 147 3053 
L 147 3500 
L 697 3500 
L 697 3744 
Q 697 4328 969 4595 
Q 1241 4863 1831 4863 
L 2375 4863 
z
" transform="scale(0.015625)"/>
       </defs>
       <use xlink:href="#DejaVuSans-53"/>
       <use xlink:href="#DejaVuSans-5c" transform="translate(63.484375 0)"/>
       <use xlink:href="#DejaVuSans-53" transform="translate(122.671875 0)"/>
       <use xlink:href="#DejaVuSans-47" transform="translate(186.15625 0)"/>
       <use xlink:href="#DejaVuSans-49" transform="translate(249.640625 0)"/>
      </g>
     </g>
    </g>
    <g id="xtick_2">
     <g id="line2d_2">
      <g>
       <use xlink:href="#m6c68218068" x="143.15271" y="363.934001" style="stroke: #000000; stroke-width: 0.8"/>
      </g>
     </g>
     <g id="text_2">
      <!-- sqlmodel -->
      <g transform="translate(109.298315 408.462588) rotate(-45) scale(0.1 -0.1)">
       <defs>
        <path id="DejaVuSans-56" d="M 2834 3397 
L 2834 2853 
Q 2591 2978 2328 3040 
Q 2066 3103 1784 3103 
Q 1356 3103 1142 2972 
Q 928 2841 928 2578 
Q 928 2378 1081 2264 
Q 1234 2150 1697 2047 
L 1894 2003 
Q 2506 1872 2764 1633 
Q 3022 1394 3022 966 
Q 3022 478 2636 193 
Q 2250 -91 1575 -91 
Q 1294 -91 989 -36 
Q 684 19 347 128 
L 347 722 
Q 666 556 975 473 
Q 1284 391 1588 391 
Q 1994 391 2212 530 
Q 2431 669 2431 922 
Q 2431 1156 2273 1281 
Q 2116 1406 1581 1522 
L 1381 1569 
Q 847 1681 609 1914 
Q 372 2147 372 2553 
Q 372 3047 722 3315 
Q 1072 3584 1716 3584 
Q 2034 3584 2315 3537 
Q 2597 3491 2834 3397 
z
" transform="scale(0.015625)"/>
        <path id="DejaVuSans-54" d="M 947 1747 
Q 947 1113 1208 752 
Q 1469 391 1925 391 
Q 2381 391 2643 752 
Q 2906 1113 2906 1747 
Q 2906 2381 2643 2742 
Q 2381 3103 1925 3103 
Q 1469 3103 1208 2742 
Q 947 2381 947 1747 
z
M 2906 525 
Q 2725 213 2448 61 
Q 2172 -91 1784 -91 
Q 1150 -91 751 415 
Q 353 922 353 1747 
Q 353 2572 751 3078 
Q 1150 3584 1784 3584 
Q 2172 3584 2448 3432 
Q 2725 3281 2906 2969 
L 2906 3500 
L 3481 3500 
L 3481 -1331 
L 2906 -1331 
L 2906 525 
z
" transform="scale(0.015625)"/>
        <path id="DejaVuSans-4f" d="M 603 4863 
L 1178 4863 
L 1178 0 
L 603 0 
L 603 4863 
z
" transform="scale(0.015625)"/>
        <path id="DejaVuSans-50" d="M 3328 2828 
Q 3544 3216 3844 3400 
Q 4144 3584 4550 3584 
Q 5097 3584 5394 3201 
Q 5691 2819 5691 2113 
L 5691 0 
L 5113 0 
L 5113 2094 
Q 5113 2597 4934 2840 
Q 4756 3084 4391 3084 
Q 3944 3084 3684 2787 
Q 3425 2491 3425 1978 
L 3425 0 
L 2847 0 
L 2847 2094 
Q 2847 2600 2669 2842 
Q 2491 3084 2119 3084 
Q 1678 3084 1418 2786 
Q 1159 2488 1159 1978 
L 1159 0 
L 581 0 
L 581 3500 
L 1159 3500 
L 1159 2956 
Q 1356 3278 1631 3431 
Q 1906 3584 2284 3584 
Q 2666 3584 2933 3390 
Q 3200 3197 3328 2828 
z
" transform="scale(0.015625)"/>
        <path id="DejaVuSans-52" d="M 1959 3097 
Q 1497 3097 1228 2736 
Q 959 2375 959 1747 
Q 959 1119 1226 758 
Q 1494 397 1959 397 
Q 2419 397 2687 759 
Q 2956 1122 2956 1747 
Q 2956 2369 2687 2733 
Q 2419 3097 1959 3097 
z
M 1959 3584 
Q 2709 3584 3137 3096 
Q 3566 2609 3566 1747 
Q 3566 888 3137 398 
Q 2709 -91 1959 -91 
Q 1206 -91 779 398 
Q 353 888 353 1747 
Q 353 2609 779 3096 
Q 1206 3584 1959 3584 
z
" transform="scale(0.015625)"/>
        <path id="DejaVuSans-48" d="M 3597 1894 
L 3597 1613 
L 953 1613 
Q 991 1019 1311 708 
Q 1631 397 2203 397 
Q 2534 397 2845 478 
Q 3156 559 3463 722 
L 3463 178 
Q 3153 47 2828 -22 
Q 2503 -91 2169 -91 
Q 1331 -91 842 396 
Q 353 884 353 1716 
Q 353 2575 817 3079 
Q 1281 3584 2069 3584 
Q 2775 3584 3186 3129 
Q 3597 2675 3597 1894 
z
M 3022 2063 
Q 3016 2534 2758 2815 
Q 2500 3097 2075 3097 
Q 1594 3097 1305 2825 
Q 1016 2553 972 2059 
L 3022 2063 
z
" transform="scale(0.015625)"/>
       </defs>
       <use xlink:href="#DejaVuSans-56"/>
       <use xlink:href="#DejaVuSans-54" transform="translate(52.09375 0)"/>
       <use xlink:href="#DejaVuSans-4f" transform="translate(115.578125 0)"/>
       <use xlink:href="#DejaVuSans-50" transform="translate(143.359375 0)"/>
       <use xlink:href="#DejaVuSans-52" transform="translate(240.765625 0)"/>
       <use xlink:href="#DejaVuSans-47" transform="translate(301.953125 0)"/>
       <use xlink:href="#DejaVuSans-48" transform="translate(365.4375 0)"/>
       <use xlink:href="#DejaVuSans-4f" transform="translate(426.96875 0)"/>
      </g>
     </g>
    </g>
    <g id="xtick_3">
     <g id="line2d_3">
      <g>
       <use xlink:href="#m6c68218068" x="174.990544" y="363.934001" style="stroke: #000000; stroke-width: 0.8"/>
      </g>
     </g>
     <g id="text_3">
      <!-- rich -->
      <g transform="translate(160.051256 389.547482) rotate(-45) scale(0.1 -0.1)">
       <defs>
        <path id="DejaVuSans-55" d="M 2631 2963 
Q 2534 3019 2420 3045 
Q 2306 3072 2169 3072 
Q 1681 3072 1420 2755 
Q 1159 2438 1159 1844 
L 1159 0 
L 581 0 
L 581 3500 
L 1159 3500 
L 1159 2956 
Q 1341 3275 1631 3429 
Q 1922 3584 2338 3584 
Q 2397 3584 2469 3576 
Q 2541 3569 2628 3553 
L 2631 2963 
z
" transform="scale(0.015625)"/>
        <path id="DejaVuSans-4c" d="M 603 3500 
L 1178 3500 
L 1178 0 
L 603 0 
L 603 3500 
z
M 603 4863 
L 1178 4863 
L 1178 4134 
L 603 4134 
L 603 4863 
z
" transform="scale(0.015625)"/>
        <path id="DejaVuSans-46" d="M 3122 3366 
L 3122 2828 
Q 2878 2963 2633 3030 
Q 2388 3097 2138 3097 
Q 1578 3097 1268 2742 
Q 959 2388 959 1747 
Q 959 1106 1268 751 
Q 1578 397 2138 397 
Q 2388 397 2633 464 
Q 2878 531 3122 666 
L 3122 134 
Q 2881 22 2623 -34 
Q 2366 -91 2075 -91 
Q 1284 -91 818 406 
Q 353 903 353 1747 
Q 353 2603 823 3093 
Q 1294 3584 2113 3584 
Q 2378 3584 2631 3529 
Q 2884 3475 3122 3366 
z
" transform="scale(0.015625)"/>
        <path id="DejaVuSans-4b" d="M 3513 2113 
L 3513 0 
L 2938 0 
L 2938 2094 
Q 2938 2591 2744 2837 
Q 2550 3084 2163 3084 
Q 1697 3084 1428 2787 
Q 1159 2491 1159 1978 
L 1159 0 
L 581 0 
L 581 4863 
L 1159 4863 
L 1159 2956 
Q 1366 3272 1645 3428 
Q 1925 3584 2291 3584 
Q 2894 3584 3203 3211 
Q 3513 2838 3513 2113 
z
" transform="scale(0.015625)"/>
       </defs>
       <use xlink:href="#DejaVuSans-55"/>
       <use xlink:href="#DejaVuSans-4c" transform="translate(41.109375 0)"/>
       <use xlink:href="#DejaVuSans-46" transform="translate(68.890625 0)"/>
       <use xlink:href="#DejaVuSans-4b" transform="translate(123.875 0)"/>
      </g>
     </g>
    </g>
    <g id="xtick_4">
     <g id="line2d_4">
      <g>
       <use xlink:href="#m6c68218068" x="206.828378" y="363.934001" style="stroke: #000000; stroke-width: 0.8"/>
      </g>
     </g>
     <g id="text_4">
      <!-- loguru -->
      <g transform="translate(182.48015 398.956422) rotate(-45) scale(0.1 -0.1)">
       <defs>
        <path id="DejaVuSans-4a" d="M 2906 1791 
Q 2906 2416 2648 2759 
Q 2391 3103 1925 3103 
Q 1463 3103 1205 2759 
Q 947 2416 947 1791 
Q 947 1169 1205 825 
Q 1463 481 1925 481 
Q 2391 481 2648 825 
Q 2906 1169 2906 1791 
z
M 3481 434 
Q 3481 -459 3084 -895 
Q 2688 -1331 1869 -1331 
Q 1566 -1331 1297 -1286 
Q 1028 -1241 775 -1147 
L 775 -588 
Q 1028 -725 1275 -790 
Q 1522 -856 1778 -856 
Q 2344 -856 2625 -561 
Q 2906 -266 2906 331 
L 2906 616 
Q 2728 306 2450 153 
Q 2172 0 1784 0 
Q 1141 0 747 490 
Q 353 981 353 1791 
Q 353 2603 747 3093 
Q 1141 3584 1784 3584 
Q 2172 3584 2450 3431 
Q 2728 3278 2906 2969 
L 2906 3500 
L 3481 3500 
L 3481 434 
z
" transform="scale(0.015625)"/>
        <path id="DejaVuSans-58" d="M 544 1381 
L 544 3500 
L 1119 3500 
L 1119 1403 
Q 1119 906 1312 657 
Q 1506 409 1894 409 
Q 2359 409 2629 706 
Q 2900 1003 2900 1516 
L 2900 3500 
L 3475 3500 
L 3475 0 
L 2900 0 
L 2900 538 
Q 2691 219 2414 64 
Q 2138 -91 1772 -91 
Q 1169 -91 856 284 
Q 544 659 544 1381 
z
M 1991 3584 
L 1991 3584 
z
" transform="scale(0.015625)"/>
       </defs>
       <use xlink:href="#DejaVuSans-4f"/>
       <use xlink:href="#DejaVuSans-52" transform="translate(27.78125 0)"/>
       <use xlink:href="#DejaVuSans-4a" transform="translate(88.96875 0)"/>
       <use xlink:href="#DejaVuSans-58" transform="translate(152.453125 0)"/>
       <use xlink:href="#DejaVuSans-55" transform="translate(215.828125 0)"/>
       <use xlink:href="#DejaVuSans-58" transform="translate(256.9375 0)"/>
      </g>
     </g>
    </g>
    <g id="xtick_5">
     <g id="line2d_5">
      <g>
       <use xlink:href="#m6c68218068" x="238.666212" y="363.934001" style="stroke: #000000; stroke-width: 0.8"/>
      </g>
     </g>
     <g id="text_5">
      <!-- click -->
      <g transform="translate(221.168081 392.106325) rotate(-45) scale(0.1 -0.1)">
       <defs>
        <path id="DejaVuSans-4e" d="M 581 4863 
L 1159 4863 
L 1159 1991 
L 2875 3500 
L 3609 3500 
L 1753 1863 
L 3688 0 
L 2938 0 
L 1159 1709 
L 1159 0 
L 581 0 
L 581 4863 
z
" transform="scale(0.015625)"/>
       </defs>
       <use xlink:href="#DejaVuSans-46"/>
       <use xlink:href="#DejaVuSans-4f" transform="translate(54.984375 0)"/>
       <use xlink:href="#DejaVuSans-4c" transform="translate(82.765625 0)"/>
       <use xlink:href="#DejaVuSans-46" transform="translate(110.546875 0)"/>
       <use xlink:href="#DejaVuSans-4e" transform="translate(165.53125 0)"/>
      </g>
     </g>
    </g>
    <g id="xtick_6">
     <g id="line2d_6">
      <g>
       <use xlink:href="#m6c68218068" x="270.504046" y="363.934001" style="stroke: #000000; stroke-width: 0.8"/>
      </g>
     </g>
     <g id="text_6">
      <!-- slugify -->
      <g transform="translate(245.671892 399.440348) rotate(-45) scale(0.1 -0.1)">
       <use xlink:href="#DejaVuSans-56"/>
       <use xlink:href="#DejaVuSans-4f" transform="translate(52.09375 0)"/>
       <use xlink:href="#DejaVuSans-58" transform="translate(79.875 0)"/>
       <use xlink:href="#DejaVuSans-4a" transform="translate(143.25 0)"/>
       <use xlink:href="#DejaVuSans-4c" transform="translate(206.734375 0)"/>
       <use xlink:href="#DejaVuSans-49" transform="translate(234.515625 0)"/>
       <use xlink:href="#DejaVuSans-5c" transform="translate(267.96875 0)"/>
      </g>
     </g>
    </g>
    <g id="xtick_7">
     <g id="line2d_7">
      <g>
       <use xlink:href="#m6c68218068" x="302.34188" y="363.934001" style="stroke: #000000; stroke-width: 0.8"/>
      </g>
     </g>
     <g id="text_7">
      <!-- pygments -->
      <g transform="translate(265.3044 411.645121) rotate(-45) scale(0.1 -0.1)">
       <defs>
        <path id="DejaVuSans-51" d="M 3513 2113 
L 3513 0 
L 2938 0 
L 2938 2094 
Q 2938 2591 2744 2837 
Q 2550 3084 2163 3084 
Q 1697 3084 1428 2787 
Q 1159 2491 1159 1978 
L 1159 0 
L 581 0 
L 581 3500 
L 1159 3500 
L 1159 2956 
Q 1366 3272 1645 3428 
Q 1925 3584 2291 3584 
Q 2894 3584 3203 3211 
Q 3513 2838 3513 2113 
z
" transform="scale(0.015625)"/>
        <path id="DejaVuSans-57" d="M 1172 4494 
L 1172 3500 
L 2356 3500 
L 2356 3053 
L 1172 3053 
L 1172 1153 
Q 1172 725 1289 603 
Q 1406 481 1766 481 
L 2356 481 
L 2356 0 
L 1766 0 
Q 1100 0 847 248 
Q 594 497 594 1153 
L 594 3053 
L 172 3053 
L 172 3500 
L 594 3500 
L 594 4494 
L 1172 4494 
z
" transform="scale(0.015625)"/>
       </defs>
       <use xlink:href="#DejaVuSans-53"/>
       <use xlink:href="#DejaVuSans-5c" transform="translate(63.484375 0)"/>
       <use xlink:href="#DejaVuSans-4a" transform="translate(122.671875 0)"/>
       <use xlink:href="#DejaVuSans-50" transform="translate(186.15625 0)"/>
       <use xlink:href="#DejaVuSans-48" transform="translate(283.5625 0)"/>
       <use xlink:href="#DejaVuSans-51" transform="translate(345.09375 0)"/>
       <use xlink:href="#DejaVuSans-57" transform="translate(408.46875 0)"/>
       <use xlink:href="#DejaVuSans-56" transform="translate(447.671875 0)"/>
      </g>
     </g>
    </g>
    <g id="xtick_8">
     <g id="line2d_8">
      <g>
       <use xlink:href="#m6c68218068" x="334.179714" y="363.934001" style="stroke: #000000; stroke-width: 0.8"/>
      </g>
     </g>
     <g id="text_8">
      <!-- dateutil -->
      <g transform="translate(305.353512 403.434396) rotate(-45) scale(0.1 -0.1)">
       <defs>
        <path id="DejaVuSans-44" d="M 2194 1759 
Q 1497 1759 1228 1600 
Q 959 1441 959 1056 
Q 959 750 1161 570 
Q 1363 391 1709 391 
Q 2188 391 2477 730 
Q 2766 1069 2766 1631 
L 2766 1759 
L 2194 1759 
z
M 3341 1997 
L 3341 0 
L 2766 0 
L 2766 531 
Q 2569 213 2275 61 
Q 1981 -91 1556 -91 
Q 1019 -91 701 211 
Q 384 513 384 1019 
Q 384 1609 779 1909 
Q 1175 2209 1959 2209 
L 2766 2209 
L 2766 2266 
Q 2766 2663 2505 2880 
Q 2244 3097 1772 3097 
Q 1472 3097 1187 3025 
Q 903 2953 641 2809 
L 641 3341 
Q 956 3463 1253 3523 
Q 1550 3584 1831 3584 
Q 2591 3584 2966 3190 
Q 3341 2797 3341 1997 
z
" transform="scale(0.015625)"/>
       </defs>
       <use xlink:href="#DejaVuSans-47"/>
       <use xlink:href="#DejaVuSans-44" transform="translate(63.484375 0)"/>
       <use xlink:href="#DejaVuSans-57" transform="translate(124.765625 0)"/>
       <use xlink:href="#DejaVuSans-48" transform="translate(163.96875 0)"/>
       <use xlink:href="#DejaVuSans-58" transform="translate(225.5 0)"/>
       <use xlink:href="#DejaVuSans-57" transform="translate(288.875 0)"/>
       <use xlink:href="#DejaVuSans-4c" transform="translate(328.078125 0)"/>
       <use xlink:href="#DejaVuSans-4f" transform="translate(355.859375 0)"/>
      </g>
     </g>
    </g>
    <g id="xtick_9">
     <g id="line2d_9">
      <g>
       <use xlink:href="#m6c68218068" x="366.017548" y="363.934001" style="stroke: #000000; stroke-width: 0.8"/>
      </g>
     </g>
     <g id="text_9">
      <!-- watchdog -->
      <g transform="translate(329.756781 410.868961) rotate(-45) scale(0.1 -0.1)">
       <defs>
        <path id="DejaVuSans-5a" d="M 269 3500 
L 844 3500 
L 1563 769 
L 2278 3500 
L 2956 3500 
L 3675 769 
L 4391 3500 
L 4966 3500 
L 4050 0 
L 3372 0 
L 2619 2869 
L 1863 0 
L 1184 0 
L 269 3500 
z
" transform="scale(0.015625)"/>
       </defs>
       <use xlink:href="#DejaVuSans-5a"/>
       <use xlink:href="#DejaVuSans-44" transform="translate(81.78125 0)"/>
       <use xlink:href="#DejaVuSans-57" transform="translate(143.0625 0)"/>
       <use xlink:href="#DejaVuSans-46" transform="translate(182.265625 0)"/>
       <use xlink:href="#DejaVuSans-4b" transform="translate(237.25 0)"/>
       <use xlink:href="#DejaVuSans-47" transform="translate(300.625 0)"/>
       <use xlink:href="#DejaVuSans-52" transform="translate(364.109375 0)"/>
       <use xlink:href="#DejaVuSans-4a" transform="translate(425.296875 0)"/>
      </g>
     </g>
    </g>
    <g id="xtick_10">
     <g id="line2d_10">
      <g>
       <use xlink:href="#m6c68218068" x="397.855382" y="363.934001" style="stroke: #000000; stroke-width: 0.8"/>
      </g>
     </g>
     <g id="text_10">
      <!-- xmltodict -->
      <g transform="translate(362.907182 409.556394) rotate(-45) scale(0.1 -0.1)">
       <defs>
        <path id="DejaVuSans-5b" d="M 3513 3500 
L 2247 1797 
L 3578 0 
L 2900 0 
L 1881 1375 
L 863 0 
L 184 0 
L 1544 1831 
L 300 3500 
L 978 3500 
L 1906 2253 
L 2834 3500 
L 3513 3500 
z
" transform="scale(0.015625)"/>
       </defs>
       <use xlink:href="#DejaVuSans-5b"/>
       <use xlink:href="#DejaVuSans-50" transform="translate(59.1875 0)"/>
       <use xlink:href="#DejaVuSans-4f" transform="translate(156.59375 0)"/>
       <use xlink:href="#DejaVuSans-57" transform="translate(184.375 0)"/>
       <use xlink:href="#DejaVuSans-52" transform="translate(223.578125 0)"/>
       <use xlink:href="#DejaVuSans-47" transform="translate(284.765625 0)"/>
       <use xlink:href="#DejaVuSans-4c" transform="translate(348.25 0)"/>
       <use xlink:href="#DejaVuSans-46" transform="translate(376.03125 0)"/>
       <use xlink:href="#DejaVuSans-57" transform="translate(431.015625 0)"/>
      </g>
     </g>
    </g>
    <g id="xtick_11">
     <g id="line2d_11">
      <g>
       <use xlink:href="#m6c68218068" x="429.693216" y="363.934001" style="stroke: #000000; stroke-width: 0.8"/>
      </g>
     </g>
     <g id="text_11">
      <!-- tabulate -->
      <g transform="translate(398.498206 405.803204) rotate(-45) scale(0.1 -0.1)">
       <defs>
        <path id="DejaVuSans-45" d="M 3116 1747 
Q 3116 2381 2855 2742 
Q 2594 3103 2138 3103 
Q 1681 3103 1420 2742 
Q 1159 2381 1159 1747 
Q 1159 1113 1420 752 
Q 1681 391 2138 391 
Q 2594 391 2855 752 
Q 3116 1113 3116 1747 
z
M 1159 2969 
Q 1341 3281 1617 3432 
Q 1894 3584 2278 3584 
Q 2916 3584 3314 3078 
Q 3713 2572 3713 1747 
Q 3713 922 3314 415 
Q 2916 -91 2278 -91 
Q 1894 -91 1617 61 
Q 1341 213 1159 525 
L 1159 0 
L 581 0 
L 581 4863 
L 1159 4863 
L 1159 2969 
z
" transform="scale(0.015625)"/>
       </defs>
       <use xlink:href="#DejaVuSans-57"/>
       <use xlink:href="#DejaVuSans-44" transform="translate(39.203125 0)"/>
       <use xlink:href="#DejaVuSans-45" transform="translate(100.484375 0)"/>
       <use xlink:href="#DejaVuSans-58" transform="translate(163.96875 0)"/>
       <use xlink:href="#DejaVuSans-4f" transform="translate(227.34375 0)"/>
       <use xlink:href="#DejaVuSans-44" transform="translate(255.125 0)"/>
       <use xlink:href="#DejaVuSans-57" transform="translate(316.40625 0)"/>
       <use xlink:href="#DejaVuSans-48" transform="translate(355.609375 0)"/>
      </g>
     </g>
    </g>
    <g id="xtick_12">
     <g id="line2d_12">
      <g>
       <use xlink:href="#m6c68218068" x="461.531051" y="363.934001" style="stroke: #000000; stroke-width: 0.8"/>
      </g>
     </g>
     <g id="text_12">
      <!-- tablib -->
      <g transform="translate(439.82011 396.319134) rotate(-45) scale(0.1 -0.1)">
       <use xlink:href="#DejaVuSans-57"/>
       <use xlink:href="#DejaVuSans-44" transform="translate(39.203125 0)"/>
       <use xlink:href="#DejaVuSans-45" transform="translate(100.484375 0)"/>
       <use xlink:href="#DejaVuSans-4f" transform="translate(163.96875 0)"/>
       <use xlink:href="#DejaVuSans-4c" transform="translate(191.75 0)"/>
       <use xlink:href="#DejaVuSans-45" transform="translate(219.53125 0)"/>
      </g>
     </g>
    </g>
    <g id="xtick_13">
     <g id="line2d_13">
      <g>
       <use xlink:href="#m6c68218068" x="493.368885" y="363.934001" style="stroke: #000000; stroke-width: 0.8"/>
      </g>
     </g>
     <g id="text_13">
      <!-- stegano -->
      <g transform="translate(463.23343 404.743096) rotate(-45) scale(0.1 -0.1)">
       <use xlink:href="#DejaVuSans-56"/>
       <use xlink:href="#DejaVuSans-57" transform="translate(52.09375 0)"/>
       <use xlink:href="#DejaVuSans-48" transform="translate(91.296875 0)"/>
       <use xlink:href="#DejaVuSans-4a" transform="translate(152.828125 0)"/>
       <use xlink:href="#DejaVuSans-44" transform="translate(216.3125 0)"/>
       <use xlink:href="#DejaVuSans-51" transform="translate(277.59375 0)"/>
       <use xlink:href="#DejaVuSans-52" transform="translate(340.96875 0)"/>
      </g>
     </g>
    </g>
    <g id="xtick_14">
     <g id="line2d_14">
      <g>
       <use xlink:href="#m6c68218068" x="525.206719" y="363.934001" style="stroke: #000000; stroke-width: 0.8"/>
      </g>
     </g>
     <g id="text_14">
      <!-- schedule -->
      <g transform="translate(491.818573 407.99634) rotate(-45) scale(0.1 -0.1)">
       <use xlink:href="#DejaVuSans-56"/>
       <use xlink:href="#DejaVuSans-46" transform="translate(52.09375 0)"/>
       <use xlink:href="#DejaVuSans-4b" transform="translate(107.078125 0)"/>
       <use xlink:href="#DejaVuSans-48" transform="translate(170.453125 0)"/>
       <use xlink:href="#DejaVuSans-47" transform="translate(231.984375 0)"/>
       <use xlink:href="#DejaVuSans-58" transform="translate(295.46875 0)"/>
       <use xlink:href="#DejaVuSans-4f" transform="translate(358.84375 0)"/>
       <use xlink:href="#DejaVuSans-48" transform="translate(386.625 0)"/>
      </g>
     </g>
    </g>
    <g id="xtick_15">
     <g id="line2d_15">
      <g>
       <use xlink:href="#m6c68218068" x="557.044553" y="363.934001" style="stroke: #000000; stroke-width: 0.8"/>
      </g>
     </g>
     <g id="text_15">
      <!-- cachetools -->
      <g transform="translate(517.331116 414.321631) rotate(-45) scale(0.1 -0.1)">
       <use xlink:href="#DejaVuSans-46"/>
       <use xlink:href="#DejaVuSans-44" transform="translate(54.984375 0)"/>
       <use xlink:href="#DejaVuSans-46" transform="translate(116.265625 0)"/>
       <use xlink:href="#DejaVuSans-4b" transform="translate(171.25 0)"/>
       <use xlink:href="#DejaVuSans-48" transform="translate(234.625 0)"/>
       <use xlink:href="#DejaVuSans-57" transform="translate(296.15625 0)"/>
       <use xlink:href="#DejaVuSans-52" transform="translate(335.359375 0)"/>
       <use xlink:href="#DejaVuSans-52" transform="translate(396.546875 0)"/>
       <use xlink:href="#DejaVuSans-4f" transform="translate(457.734375 0)"/>
       <use xlink:href="#DejaVuSans-56" transform="translate(485.515625 0)"/>
      </g>
     </g>
    </g>
    <g id="xtick_16">
     <g id="line2d_16">
      <g>
       <use xlink:href="#m6c68218068" x="588.882387" y="363.934001" style="stroke: #000000; stroke-width: 0.8"/>
      </g>
     </g>
     <g id="text_16">
      <!-- pyjwt -->
      <g transform="translate(567.990144 395.500437) rotate(-45) scale(0.1 -0.1)">
       <defs>
        <path id="DejaVuSans-4d" d="M 603 3500 
L 1178 3500 
L 1178 -63 
Q 1178 -731 923 -1031 
Q 669 -1331 103 -1331 
L -116 -1331 
L -116 -844 
L 38 -844 
Q 366 -844 484 -692 
Q 603 -541 603 -63 
L 603 3500 
z
M 603 4863 
L 1178 4863 
L 1178 4134 
L 603 4134 
L 603 4863 
z
" transform="scale(0.015625)"/>
       </defs>
       <use xlink:href="#DejaVuSans-53"/>
       <use xlink:href="#DejaVuSans-5c" transform="translate(63.484375 0)"/>
       <use xlink:href="#DejaVuSans-4d" transform="translate(122.671875 0)"/>
       <use xlink:href="#DejaVuSans-5a" transform="translate(150.453125 0)"/>
       <use xlink:href="#DejaVuSans-57" transform="translate(232.234375 0)"/>
      </g>
     </g>
    </g>
    <g id="xtick_17">
     <g id="line2d_17">
      <g>
       <use xlink:href="#m6c68218068" x="620.720221" y="363.934001" style="stroke: #000000; stroke-width: 0.8"/>
      </g>
     </g>
     <g id="text_17">
      <!-- imageio -->
      <g transform="translate(590.705195 404.623219) rotate(-45) scale(0.1 -0.1)">
       <use xlink:href="#DejaVuSans-4c"/>
       <use xlink:href="#DejaVuSans-50" transform="translate(27.78125 0)"/>
       <use xlink:href="#DejaVuSans-44" transform="translate(125.1875 0)"/>
       <use xlink:href="#DejaVuSans-4a" transform="translate(186.46875 0)"/>
       <use xlink:href="#DejaVuSans-48" transform="translate(249.953125 0)"/>
       <use xlink:href="#DejaVuSans-4c" transform="translate(311.484375 0)"/>
       <use xlink:href="#DejaVuSans-52" transform="translate(339.265625 0)"/>
      </g>
     </g>
    </g>
    <g id="xtick_18">
     <g id="line2d_18">
      <g>
       <use xlink:href="#m6c68218068" x="652.558055" y="363.934001" style="stroke: #000000; stroke-width: 0.8"/>
      </g>
     </g>
     <g id="text_18">
      <!-- astral -->
      <g transform="translate(630.865897 396.300352) rotate(-45) scale(0.1 -0.1)">
       <use xlink:href="#DejaVuSans-44"/>
       <use xlink:href="#DejaVuSans-56" transform="translate(61.28125 0)"/>
       <use xlink:href="#DejaVuSans-57" transform="translate(113.375 0)"/>
       <use xlink:href="#DejaVuSans-55" transform="translate(152.578125 0)"/>
       <use xlink:href="#DejaVuSans-44" transform="translate(193.6875 0)"/>
       <use xlink:href="#DejaVuSans-4f" transform="translate(254.96875 0)"/>
      </g>
     </g>
    </g>
    <g id="xtick_19">
     <g id="line2d_19">
      <g>
       <use xlink:href="#m6c68218068" x="684.395889" y="363.934001" style="stroke: #000000; stroke-width: 0.8"/>
      </g>
     </g>
     <g id="text_19">
      <!-- petl -->
      <g transform="translate(669.120725 389.883358) rotate(-45) scale(0.1 -0.1)">
       <use xlink:href="#DejaVuSans-53"/>
       <use xlink:href="#DejaVuSans-48" transform="translate(63.484375 0)"/>
       <use xlink:href="#DejaVuSans-57" transform="translate(125.015625 0)"/>
       <use xlink:href="#DejaVuSans-4f" transform="translate(164.21875 0)"/>
      </g>
     </g>
    </g>
    <g id="xtick_20">
     <g id="line2d_20">
      <g>
       <use xlink:href="#m6c68218068" x="716.233723" y="363.934001" style="stroke: #000000; stroke-width: 0.8"/>
      </g>
     </g>
     <g id="text_20">
      <!-- humanize -->
      <g transform="translate(679.843688 410.998229) rotate(-45) scale(0.1 -0.1)">
       <defs>
        <path id="DejaVuSans-5d" d="M 353 3500 
L 3084 3500 
L 3084 2975 
L 922 459 
L 3084 459 
L 3084 0 
L 275 0 
L 275 525 
L 2438 3041 
L 353 3041 
L 353 3500 
z
" transform="scale(0.015625)"/>
       </defs>
       <use xlink:href="#DejaVuSans-4b"/>
       <use xlink:href="#DejaVuSans-58" transform="translate(63.375 0)"/>
       <use xlink:href="#DejaVuSans-50" transform="translate(126.75 0)"/>
       <use xlink:href="#DejaVuSans-44" transform="translate(224.15625 0)"/>
       <use xlink:href="#DejaVuSans-51" transform="translate(285.4375 0)"/>
       <use xlink:href="#DejaVuSans-4c" transform="translate(348.8125 0)"/>
       <use xlink:href="#DejaVuSans-5d" transform="translate(376.59375 0)"/>
       <use xlink:href="#DejaVuSans-48" transform="translate(429.078125 0)"/>
      </g>
     </g>
    </g>
    <g id="xtick_21">
     <g id="line2d_21">
      <g>
       <use xlink:href="#m6c68218068" x="748.071557" y="363.934001" style="stroke: #000000; stroke-width: 0.8"/>
      </g>
     </g>
     <g id="text_21">
      <!-- lifelines -->
      <g transform="translate(719.159177 403.520575) rotate(-45) scale(0.1 -0.1)">
       <use xlink:href="#DejaVuSans-4f"/>
       <use xlink:href="#DejaVuSans-4c" transform="translate(27.78125 0)"/>
       <use xlink:href="#DejaVuSans-49" transform="translate(55.5625 0)"/>
       <use xlink:href="#DejaVuSans-48" transform="translate(90.765625 0)"/>
       <use xlink:href="#DejaVuSans-4f" transform="translate(152.296875 0)"/>
       <use xlink:href="#DejaVuSans-4c" transform="translate(180.078125 0)"/>
       <use xlink:href="#DejaVuSans-51" transform="translate(207.859375 0)"/>
       <use xlink:href="#DejaVuSans-48" transform="translate(271.234375 0)"/>
       <use xlink:href="#DejaVuSans-56" transform="translate(332.765625 0)"/>
      </g>
     </g>
    </g>
    <g id="xtick_22">
     <g id="line2d_22">
      <g>
       <use xlink:href="#m6c68218068" x="779.909392" y="363.934001" style="stroke: #000000; stroke-width: 0.8"/>
      </g>
     </g>
     <g id="text_22">
      <!-- folium -->
      <g transform="translate(756.097018 398.420567) rotate(-45) scale(0.1 -0.1)">
       <use xlink:href="#DejaVuSans-49"/>
       <use xlink:href="#DejaVuSans-52" transform="translate(35.203125 0)"/>
       <use xlink:href="#DejaVuSans-4f" transform="translate(96.390625 0)"/>
       <use xlink:href="#DejaVuSans-4c" transform="translate(124.171875 0)"/>
       <use xlink:href="#DejaVuSans-58" transform="translate(151.953125 0)"/>
       <use xlink:href="#DejaVuSans-50" transform="translate(215.328125 0)"/>
      </g>
     </g>
    </g>
    <g id="xtick_23">
     <g id="line2d_23">
      <g>
       <use xlink:href="#m6c68218068" x="811.747226" y="363.934001" style="stroke: #000000; stroke-width: 0.8"/>
      </g>
     </g>
     <g id="text_23">
      <!-- pendulum -->
      <g transform="translate(774.423589 411.931831) rotate(-45) scale(0.1 -0.1)">
       <use xlink:href="#DejaVuSans-53"/>
       <use xlink:href="#DejaVuSans-48" transform="translate(63.484375 0)"/>
       <use xlink:href="#DejaVuSans-51" transform="translate(125.015625 0)"/>
       <use xlink:href="#DejaVuSans-47" transform="translate(188.390625 0)"/>
       <use xlink:href="#DejaVuSans-58" transform="translate(251.875 0)"/>
       <use xlink:href="#DejaVuSans-4f" transform="translate(315.25 0)"/>
       <use xlink:href="#DejaVuSans-58" transform="translate(343.03125 0)"/>
       <use xlink:href="#DejaVuSans-50" transform="translate(406.40625 0)"/>
      </g>
     </g>
    </g>
    <g id="xtick_24">
     <g id="line2d_24">
      <g>
       <use xlink:href="#m6c68218068" x="843.58506" y="363.934001" style="stroke: #000000; stroke-width: 0.8"/>
      </g>
     </g>
     <g id="text_24">
      <!-- dataset -->
      <g transform="translate(815.152186 403.041068) rotate(-45) scale(0.1 -0.1)">
       <use xlink:href="#DejaVuSans-47"/>
       <use xlink:href="#DejaVuSans-44" transform="translate(63.484375 0)"/>
       <use xlink:href="#DejaVuSans-57" transform="translate(124.765625 0)"/>
       <use xlink:href="#DejaVuSans-44" transform="translate(163.96875 0)"/>
       <use xlink:href="#DejaVuSans-56" transform="translate(225.25 0)"/>
       <use xlink:href="#DejaVuSans-48" transform="translate(277.34375 0)"/>
       <use xlink:href="#DejaVuSans-57" transform="translate(338.875 0)"/>
      </g>
     </g>
    </g>
    <g id="xtick_25">
     <g id="line2d_25">
      <g>
       <use xlink:href="#m6c68218068" x="875.422894" y="363.934001" style="stroke: #000000; stroke-width: 0.8"/>
      </g>
     </g>
     <g id="text_25">
      <!-- mutagen -->
      <g transform="translate(841.928682 408.101853) rotate(-45) scale(0.1 -0.1)">
       <use xlink:href="#DejaVuSans-50"/>
       <use xlink:href="#DejaVuSans-58" transform="translate(97.40625 0)"/>
       <use xlink:href="#DejaVuSans-57" transform="translate(160.78125 0)"/>
       <use xlink:href="#DejaVuSans-44" transform="translate(199.984375 0)"/>
       <use xlink:href="#DejaVuSans-4a" transform="translate(261.265625 0)"/>
       <use xlink:href="#DejaVuSans-48" transform="translate(324.75 0)"/>
       <use xlink:href="#DejaVuSans-51" transform="translate(386.28125 0)"/>
      </g>
     </g>
    </g>
    <g id="xtick_26">
     <g id="line2d_26">
      <g>
       <use xlink:href="#m6c68218068" x="907.260728" y="363.934001" style="stroke: #000000; stroke-width: 0.8"/>
      </g>
     </g>
     <g id="text_26">
      <!-- tinydb -->
      <g transform="translate(883.18098 398.687942) rotate(-45) scale(0.1 -0.1)">
       <use xlink:href="#DejaVuSans-57"/>
       <use xlink:href="#DejaVuSans-4c" transform="translate(39.203125 0)"/>
       <use xlink:href="#DejaVuSans-51" transform="translate(66.984375 0)"/>
       <use xlink:href="#DejaVuSans-5c" transform="translate(130.359375 0)"/>
       <use xlink:href="#DejaVuSans-47" transform="translate(189.546875 0)"/>
       <use xlink:href="#DejaVuSans-45" transform="translate(253.03125 0)"/>
      </g>
     </g>
    </g>
    <g id="xtick_27">
     <g id="line2d_27">
      <g>
       <use xlink:href="#m6c68218068" x="939.098562" y="363.934001" style="stroke: #000000; stroke-width: 0.8"/>
      </g>
     </g>
     <g id="text_27">
      <!-- requests -->
      <g transform="translate(906.837368 406.868836) rotate(-45) scale(0.1 -0.1)">
       <use xlink:href="#DejaVuSans-55"/>
       <use xlink:href="#DejaVuSans-48" transform="translate(38.90625 0)"/>
       <use xlink:href="#DejaVuSans-54" transform="translate(100.4375 0)"/>
       <use xlink:href="#DejaVuSans-58" transform="translate(163.921875 0)"/>
       <use xlink:href="#DejaVuSans-48" transform="translate(227.296875 0)"/>
       <use xlink:href="#DejaVuSans-56" transform="translate(288.828125 0)"/>
       <use xlink:href="#DejaVuSans-57" transform="translate(340.921875 0)"/>
       <use xlink:href="#DejaVuSans-56" transform="translate(380.125 0)"/>
      </g>
     </g>
    </g>
   </g>
   <g id="matplotlib.axis_2">
    <g id="ytick_1">
     <g id="line2d_28">
      <path d="M 57.668125 356.916488 
L 992.745313 356.916488 
" clip-path="url(#pecc6d2dbf0)" style="fill: none; stroke-dasharray: 2.96,1.28; stroke-dashoffset: 0; stroke: #b0b0b0; stroke-opacity: 0.7; stroke-width: 0.8"/>
     </g>
     <g id="line2d_29">
      <defs>
       <path id="mf2a6b2ef20" d="M 0 0 
L -3.5 0 
" style="stroke: #000000; stroke-width: 0.8"/>
      </defs>
      <g>
       <use xlink:href="#mf2a6b2ef20" x="57.668125" y="356.916488" style="stroke: #000000; stroke-width: 0.8"/>
      </g>
     </g>
     <g id="text_28">
      <!-- −100 -->
      <g transform="translate(23.200938 360.715316) scale(0.1 -0.1)">
       <defs>
        <path id="DejaVuSans-c9c" d="M 678 2272 
L 4684 2272 
L 4684 1741 
L 678 1741 
L 678 2272 
z
" transform="scale(0.015625)"/>
        <path id="DejaVuSans-14" d="M 794 531 
L 1825 531 
L 1825 4091 
L 703 3866 
L 703 4441 
L 1819 4666 
L 2450 4666 
L 2450 531 
L 3481 531 
L 3481 0 
L 794 0 
L 794 531 
z
" transform="scale(0.015625)"/>
        <path id="DejaVuSans-13" d="M 2034 4250 
Q 1547 4250 1301 3770 
Q 1056 3291 1056 2328 
Q 1056 1369 1301 889 
Q 1547 409 2034 409 
Q 2525 409 2770 889 
Q 3016 1369 3016 2328 
Q 3016 3291 2770 3770 
Q 2525 4250 2034 4250 
z
M 2034 4750 
Q 2819 4750 3233 4129 
Q 3647 3509 3647 2328 
Q 3647 1150 3233 529 
Q 2819 -91 2034 -91 
Q 1250 -91 836 529 
Q 422 1150 422 2328 
Q 422 3509 836 4129 
Q 1250 4750 2034 4750 
z
" transform="scale(0.015625)"/>
       </defs>
       <use xlink:href="#DejaVuSans-c9c"/>
       <use xlink:href="#DejaVuSans-14" transform="translate(83.796875 0)"/>
       <use xlink:href="#DejaVuSans-13" transform="translate(147.421875 0)"/>
       <use xlink:href="#DejaVuSans-13" transform="translate(211.046875 0)"/>
      </g>
     </g>
    </g>
    <g id="ytick_2">
     <g id="line2d_30">
      <path d="M 57.668125 321.828924 
L 992.745313 321.828924 
" clip-path="url(#pecc6d2dbf0)" style="fill: none; stroke-dasharray: 2.96,1.28; stroke-dashoffset: 0; stroke: #b0b0b0; stroke-opacity: 0.7; stroke-width: 0.8"/>
     </g>
     <g id="line2d_31">
      <g>
       <use xlink:href="#mf2a6b2ef20" x="57.668125" y="321.828924" style="stroke: #000000; stroke-width: 0.8"/>
      </g>
     </g>
     <g id="text_29">
      <!-- −75 -->
      <g transform="translate(29.563438 325.627752) scale(0.1 -0.1)">
       <defs>
        <path id="DejaVuSans-1a" d="M 525 4666 
L 3525 4666 
L 3525 4397 
L 1831 0 
L 1172 0 
L 2766 4134 
L 525 4134 
L 525 4666 
z
" transform="scale(0.015625)"/>
        <path id="DejaVuSans-18" d="M 691 4666 
L 3169 4666 
L 3169 4134 
L 1269 4134 
L 1269 2991 
Q 1406 3038 1543 3061 
Q 1681 3084 1819 3084 
Q 2600 3084 3056 2656 
Q 3513 2228 3513 1497 
Q 3513 744 3044 326 
Q 2575 -91 1722 -91 
Q 1428 -91 1123 -41 
Q 819 9 494 109 
L 494 744 
Q 775 591 1075 516 
Q 1375 441 1709 441 
Q 2250 441 2565 725 
Q 2881 1009 2881 1497 
Q 2881 1984 2565 2268 
Q 2250 2553 1709 2553 
Q 1456 2553 1204 2497 
Q 953 2441 691 2322 
L 691 4666 
z
" transform="scale(0.015625)"/>
       </defs>
       <use xlink:href="#DejaVuSans-c9c"/>
       <use xlink:href="#DejaVuSans-1a" transform="translate(83.796875 0)"/>
       <use xlink:href="#DejaVuSans-18" transform="translate(147.421875 0)"/>
      </g>
     </g>
    </g>
    <g id="ytick_3">
     <g id="line2d_32">
      <path d="M 57.668125 286.74136 
L 992.745313 286.74136 
" clip-path="url(#pecc6d2dbf0)" style="fill: none; stroke-dasharray: 2.96,1.28; stroke-dashoffset: 0; stroke: #b0b0b0; stroke-opacity: 0.7; stroke-width: 0.8"/>
     </g>
     <g id="line2d_33">
      <g>
       <use xlink:href="#mf2a6b2ef20" x="57.668125" y="286.74136" style="stroke: #000000; stroke-width: 0.8"/>
      </g>
     </g>
     <g id="text_30">
      <!-- −50 -->
      <g transform="translate(29.563438 290.540188) scale(0.1 -0.1)">
       <use xlink:href="#DejaVuSans-c9c"/>
       <use xlink:href="#DejaVuSans-18" transform="translate(83.796875 0)"/>
       <use xlink:href="#DejaVuSans-13" transform="translate(147.421875 0)"/>
      </g>
     </g>
    </g>
    <g id="ytick_4">
     <g id="line2d_34">
      <path d="M 57.668125 251.653796 
L 992.745313 251.653796 
" clip-path="url(#pecc6d2dbf0)" style="fill: none; stroke-dasharray: 2.96,1.28; stroke-dashoffset: 0; stroke: #b0b0b0; stroke-opacity: 0.7; stroke-width: 0.8"/>
     </g>
     <g id="line2d_35">
      <g>
       <use xlink:href="#mf2a6b2ef20" x="57.668125" y="251.653796" style="stroke: #000000; stroke-width: 0.8"/>
      </g>
     </g>
     <g id="text_31">
      <!-- −25 -->
      <g transform="translate(29.563438 255.452624) scale(0.1 -0.1)">
       <defs>
        <path id="DejaVuSans-15" d="M 1228 531 
L 3431 531 
L 3431 0 
L 469 0 
L 469 531 
Q 828 903 1448 1529 
Q 2069 2156 2228 2338 
Q 2531 2678 2651 2914 
Q 2772 3150 2772 3378 
Q 2772 3750 2511 3984 
Q 2250 4219 1831 4219 
Q 1534 4219 1204 4116 
Q 875 4013 500 3803 
L 500 4441 
Q 881 4594 1212 4672 
Q 1544 4750 1819 4750 
Q 2544 4750 2975 4387 
Q 3406 4025 3406 3419 
Q 3406 3131 3298 2873 
Q 3191 2616 2906 2266 
Q 2828 2175 2409 1742 
Q 1991 1309 1228 531 
z
" transform="scale(0.015625)"/>
       </defs>
       <use xlink:href="#DejaVuSans-c9c"/>
       <use xlink:href="#DejaVuSans-15" transform="translate(83.796875 0)"/>
       <use xlink:href="#DejaVuSans-18" transform="translate(147.421875 0)"/>
      </g>
     </g>
    </g>
    <g id="ytick_5">
     <g id="line2d_36">
      <path d="M 57.668125 216.566232 
L 992.745313 216.566232 
" clip-path="url(#pecc6d2dbf0)" style="fill: none; stroke-dasharray: 2.96,1.28; stroke-dashoffset: 0; stroke: #b0b0b0; stroke-opacity: 0.7; stroke-width: 0.8"/>
     </g>
     <g id="line2d_37">
      <g>
       <use xlink:href="#mf2a6b2ef20" x="57.668125" y="216.566232" style="stroke: #000000; stroke-width: 0.8"/>
      </g>
     </g>
     <g id="text_32">
      <!-- 0 -->
      <g transform="translate(44.305625 220.36506) scale(0.1 -0.1)">
       <use xlink:href="#DejaVuSans-13"/>
      </g>
     </g>
    </g>
    <g id="ytick_6">
     <g id="line2d_38">
      <path d="M 57.668125 181.478668 
L 992.745313 181.478668 
" clip-path="url(#pecc6d2dbf0)" style="fill: none; stroke-dasharray: 2.96,1.28; stroke-dashoffset: 0; stroke: #b0b0b0; stroke-opacity: 0.7; stroke-width: 0.8"/>
     </g>
     <g id="line2d_39">
      <g>
       <use xlink:href="#mf2a6b2ef20" x="57.668125" y="181.478668" style="stroke: #000000; stroke-width: 0.8"/>
      </g>
     </g>
     <g id="text_33">
      <!-- 25 -->
      <g transform="translate(37.943125 185.277496) scale(0.1 -0.1)">
       <use xlink:href="#DejaVuSans-15"/>
       <use xlink:href="#DejaVuSans-18" transform="translate(63.625 0)"/>
      </g>
     </g>
    </g>
    <g id="ytick_7">
     <g id="line2d_40">
      <path d="M 57.668125 146.391104 
L 992.745313 146.391104 
" clip-path="url(#pecc6d2dbf0)" style="fill: none; stroke-dasharray: 2.96,1.28; stroke-dashoffset: 0; stroke: #b0b0b0; stroke-opacity: 0.7; stroke-width: 0.8"/>
     </g>
     <g id="line2d_41">
      <g>
       <use xlink:href="#mf2a6b2ef20" x="57.668125" y="146.391104" style="stroke: #000000; stroke-width: 0.8"/>
      </g>
     </g>
     <g id="text_34">
      <!-- 50 -->
      <g transform="translate(37.943125 150.189932) scale(0.1 -0.1)">
       <use xlink:href="#DejaVuSans-18"/>
       <use xlink:href="#DejaVuSans-13" transform="translate(63.625 0)"/>
      </g>
     </g>
    </g>
    <g id="ytick_8">
     <g id="line2d_42">
      <path d="M 57.668125 111.30354 
L 992.745313 111.30354 
" clip-path="url(#pecc6d2dbf0)" style="fill: none; stroke-dasharray: 2.96,1.28; stroke-dashoffset: 0; stroke: #b0b0b0; stroke-opacity: 0.7; stroke-width: 0.8"/>
     </g>
     <g id="line2d_43">
      <g>
       <use xlink:href="#mf2a6b2ef20" x="57.668125" y="111.30354" style="stroke: #000000; stroke-width: 0.8"/>
      </g>
     </g>
     <g id="text_35">
      <!-- 75 -->
      <g transform="translate(37.943125 115.102368) scale(0.1 -0.1)">
       <use xlink:href="#DejaVuSans-1a"/>
       <use xlink:href="#DejaVuSans-18" transform="translate(63.625 0)"/>
      </g>
     </g>
    </g>
    <g id="ytick_9">
     <g id="line2d_44">
      <path d="M 57.668125 76.215976 
L 992.745313 76.215976 
" clip-path="url(#pecc6d2dbf0)" style="fill: none; stroke-dasharray: 2.96,1.28; stroke-dashoffset: 0; stroke: #b0b0b0; stroke-opacity: 0.7; stroke-width: 0.8"/>
     </g>
     <g id="line2d_45">
      <g>
       <use xlink:href="#mf2a6b2ef20" x="57.668125" y="76.215976" style="stroke: #000000; stroke-width: 0.8"/>
      </g>
     </g>
     <g id="text_36">
      <!-- 100 -->
      <g transform="translate(31.580625 80.014804) scale(0.1 -0.1)">
       <use xlink:href="#DejaVuSans-14"/>
       <use xlink:href="#DejaVuSans-13" transform="translate(63.625 0)"/>
       <use xlink:href="#DejaVuSans-13" transform="translate(127.25 0)"/>
      </g>
     </g>
    </g>
    <g id="text_37">
     <!-- Delta (%) -->
     <g transform="translate(16.318125 241.158407) rotate(-90) scale(0.12 -0.12)">
      <defs>
       <path id="DejaVuSans-Bold-27" d="M 1791 3756 
L 1791 909 
L 2222 909 
Q 2959 909 3348 1275 
Q 3738 1641 3738 2338 
Q 3738 3031 3350 3393 
Q 2963 3756 2222 3756 
L 1791 3756 
z
M 588 4666 
L 1856 4666 
Q 2919 4666 3439 4514 
Q 3959 4363 4331 4000 
Q 4659 3684 4818 3271 
Q 4978 2859 4978 2338 
Q 4978 1809 4818 1395 
Q 4659 981 4331 666 
Q 3956 303 3431 151 
Q 2906 0 1856 0 
L 588 0 
L 588 4666 
z
" transform="scale(0.015625)"/>
       <path id="DejaVuSans-Bold-48" d="M 4031 1759 
L 4031 1441 
L 1416 1441 
Q 1456 1047 1700 850 
Q 1944 653 2381 653 
Q 2734 653 3104 758 
Q 3475 863 3866 1075 
L 3866 213 
Q 3469 63 3072 -14 
Q 2675 -91 2278 -91 
Q 1328 -91 801 392 
Q 275 875 275 1747 
Q 275 2603 792 3093 
Q 1309 3584 2216 3584 
Q 3041 3584 3536 3087 
Q 4031 2591 4031 1759 
z
M 2881 2131 
Q 2881 2450 2695 2645 
Q 2509 2841 2209 2841 
Q 1884 2841 1681 2658 
Q 1478 2475 1428 2131 
L 2881 2131 
z
" transform="scale(0.015625)"/>
       <path id="DejaVuSans-Bold-4f" d="M 538 4863 
L 1656 4863 
L 1656 0 
L 538 0 
L 538 4863 
z
" transform="scale(0.015625)"/>
       <path id="DejaVuSans-Bold-57" d="M 1759 4494 
L 1759 3500 
L 2913 3500 
L 2913 2700 
L 1759 2700 
L 1759 1216 
Q 1759 972 1856 886 
Q 1953 800 2241 800 
L 2816 800 
L 2816 0 
L 1856 0 
Q 1194 0 917 276 
Q 641 553 641 1216 
L 641 2700 
L 84 2700 
L 84 3500 
L 641 3500 
L 641 4494 
L 1759 4494 
z
" transform="scale(0.015625)"/>
       <path id="DejaVuSans-Bold-44" d="M 2106 1575 
Q 1756 1575 1579 1456 
Q 1403 1338 1403 1106 
Q 1403 894 1545 773 
Q 1688 653 1941 653 
Q 2256 653 2472 879 
Q 2688 1106 2688 1447 
L 2688 1575 
L 2106 1575 
z
M 3816 1997 
L 3816 0 
L 2688 0 
L 2688 519 
Q 2463 200 2181 54 
Q 1900 -91 1497 -91 
Q 953 -91 614 226 
Q 275 544 275 1050 
Q 275 1666 698 1953 
Q 1122 2241 2028 2241 
L 2688 2241 
L 2688 2328 
Q 2688 2594 2478 2717 
Q 2269 2841 1825 2841 
Q 1466 2841 1156 2769 
Q 847 2697 581 2553 
L 581 3406 
Q 941 3494 1303 3539 
Q 1666 3584 2028 3584 
Q 2975 3584 3395 3211 
Q 3816 2838 3816 1997 
z
" transform="scale(0.015625)"/>
       <path id="DejaVuSans-Bold-3" transform="scale(0.015625)"/>
       <path id="DejaVuSans-Bold-b" d="M 2413 -844 
L 1484 -844 
Q 1006 -72 778 623 
Q 550 1319 550 2003 
Q 550 2688 779 3389 
Q 1009 4091 1484 4856 
L 2413 4856 
Q 2013 4116 1813 3408 
Q 1613 2700 1613 2009 
Q 1613 1319 1811 609 
Q 2009 -100 2413 -844 
z
" transform="scale(0.015625)"/>
       <path id="DejaVuSans-Bold-8" d="M 4959 1925 
Q 4738 1925 4616 1733 
Q 4494 1541 4494 1184 
Q 4494 825 4614 633 
Q 4734 441 4959 441 
Q 5184 441 5303 633 
Q 5422 825 5422 1184 
Q 5422 1541 5301 1733 
Q 5181 1925 4959 1925 
z
M 4959 2450 
Q 5541 2450 5875 2112 
Q 6209 1775 6209 1184 
Q 6209 594 5875 251 
Q 5541 -91 4959 -91 
Q 4378 -91 4042 251 
Q 3706 594 3706 1184 
Q 3706 1772 4042 2111 
Q 4378 2450 4959 2450 
z
M 2094 -91 
L 1403 -91 
L 4319 4750 
L 5013 4750 
L 2094 -91 
z
M 1453 4750 
Q 2034 4750 2367 4411 
Q 2700 4072 2700 3481 
Q 2700 2891 2367 2550 
Q 2034 2209 1453 2209 
Q 872 2209 539 2550 
Q 206 2891 206 3481 
Q 206 4072 539 4411 
Q 872 4750 1453 4750 
z
M 1453 4225 
Q 1228 4225 1106 4031 
Q 984 3838 984 3481 
Q 984 3122 1106 2926 
Q 1228 2731 1453 2731 
Q 1678 2731 1798 2926 
Q 1919 3122 1919 3481 
Q 1919 3838 1797 4031 
Q 1675 4225 1453 4225 
z
" transform="scale(0.015625)"/>
       <path id="DejaVuSans-Bold-c" d="M 513 -844 
Q 913 -100 1113 609 
Q 1313 1319 1313 2009 
Q 1313 2700 1113 3408 
Q 913 4116 513 4856 
L 1441 4856 
Q 1916 4091 2145 3389 
Q 2375 2688 2375 2003 
Q 2375 1319 2147 623 
Q 1919 -72 1441 -844 
L 513 -844 
z
" transform="scale(0.015625)"/>
      </defs>
      <use xlink:href="#DejaVuSans-Bold-27"/>
      <use xlink:href="#DejaVuSans-Bold-48" transform="translate(83.015625 0)"/>
      <use xlink:href="#DejaVuSans-Bold-4f" transform="translate(150.84375 0)"/>
      <use xlink:href="#DejaVuSans-Bold-57" transform="translate(185.125 0)"/>
      <use xlink:href="#DejaVuSans-Bold-44" transform="translate(232.921875 0)"/>
      <use xlink:href="#DejaVuSans-Bold-3" transform="translate(300.40625 0)"/>
      <use xlink:href="#DejaVuSans-Bold-b" transform="translate(335.21875 0)"/>
      <use xlink:href="#DejaVuSans-Bold-8" transform="translate(380.921875 0)"/>
      <use xlink:href="#DejaVuSans-Bold-c" transform="translate(481.125 0)"/>
     </g>
    </g>
   </g>
   <g id="patch_3">
    <path d="M 100.171634 216.566232 
L 122.458117 216.566232 
L 122.458117 91.808889 
L 100.171634 91.808889 
z
" clip-path="url(#pecc6d2dbf0)" style="fill: #2ca02c; stroke: #ffffff; stroke-linejoin: miter"/>
   </g>
   <g id="patch_4">
    <path d="M 132.009468 216.566232 
L 154.295951 216.566232 
L 154.295951 101.282532 
L 132.009468 101.282532 
z
" clip-path="url(#pecc6d2dbf0)" style="fill: #2ca02c; stroke: #ffffff; stroke-linejoin: miter"/>
   </g>
   <g id="patch_5">
    <path d="M 163.847302 216.566232 
L 186.133786 216.566232 
L 186.133786 118.742103 
L 163.847302 118.742103 
z
" clip-path="url(#pecc6d2dbf0)" style="fill: #2ca02c; stroke: #ffffff; stroke-linejoin: miter"/>
   </g>
   <g id="patch_6">
    <path d="M 195.685136 216.566232 
L 217.97162 216.566232 
L 217.97162 176.468164 
L 195.685136 176.468164 
z
" clip-path="url(#pecc6d2dbf0)" style="fill: #2ca02c; stroke: #ffffff; stroke-linejoin: miter"/>
   </g>
   <g id="patch_7">
    <path d="M 227.52297 216.566232 
L 249.809454 216.566232 
L 249.809454 207.20487 
L 227.52297 207.20487 
z
" clip-path="url(#pecc6d2dbf0)" style="fill: #2ca02c; stroke: #ffffff; stroke-linejoin: miter"/>
   </g>
   <g id="patch_8">
    <path d="M 259.360804 216.566232 
L 281.647288 216.566232 
L 281.647288 207.780306 
L 259.360804 207.780306 
z
" clip-path="url(#pecc6d2dbf0)" style="fill: #2ca02c; stroke: #ffffff; stroke-linejoin: miter"/>
   </g>
   <g id="patch_9">
    <path d="M 291.198638 216.566232 
L 313.485122 216.566232 
L 313.485122 208.313637 
L 291.198638 208.313637 
z
" clip-path="url(#pecc6d2dbf0)" style="fill: #2ca02c; stroke: #ffffff; stroke-linejoin: miter"/>
   </g>
   <g id="patch_10">
    <path d="M 323.036472 216.566232 
L 345.322956 216.566232 
L 345.322956 210.180295 
L 323.036472 210.180295 
z
" clip-path="url(#pecc6d2dbf0)" style="fill: #2ca02c; stroke: #ffffff; stroke-linejoin: miter"/>
   </g>
   <g id="patch_11">
    <path d="M 354.874306 216.566232 
L 377.16079 216.566232 
L 377.16079 211.162747 
L 354.874306 211.162747 
z
" clip-path="url(#pecc6d2dbf0)" style="fill: #2ca02c; stroke: #ffffff; stroke-linejoin: miter"/>
   </g>
   <g id="patch_12">
    <path d="M 386.71214 216.566232 
L 408.998624 216.566232 
L 408.998624 216.566232 
L 386.71214 216.566232 
z
" clip-path="url(#pecc6d2dbf0)" style="fill: #cccccc; stroke: #ffffff; stroke-linejoin: miter"/>
   </g>
   <g id="patch_13">
    <path d="M 418.549975 216.566232 
L 440.836458 216.566232 
L 440.836458 216.566232 
L 418.549975 216.566232 
z
" clip-path="url(#pecc6d2dbf0)" style="fill: #cccccc; stroke: #ffffff; stroke-linejoin: miter"/>
   </g>
   <g id="patch_14">
    <path d="M 450.387809 216.566232 
L 472.674292 216.566232 
L 472.674292 216.566232 
L 450.387809 216.566232 
z
" clip-path="url(#pecc6d2dbf0)" style="fill: #cccccc; stroke: #ffffff; stroke-linejoin: miter"/>
   </g>
   <g id="patch_15">
    <path d="M 482.225643 216.566232 
L 504.512127 216.566232 
L 504.512127 216.566232 
L 482.225643 216.566232 
z
" clip-path="url(#pecc6d2dbf0)" style="fill: #cccccc; stroke: #ffffff; stroke-linejoin: miter"/>
   </g>
   <g id="patch_16">
    <path d="M 514.063477 216.566232 
L 536.349961 216.566232 
L 536.349961 216.566232 
L 514.063477 216.566232 
z
" clip-path="url(#pecc6d2dbf0)" style="fill: #cccccc; stroke: #ffffff; stroke-linejoin: miter"/>
   </g>
   <g id="patch_17">
    <path d="M 545.901311 216.566232 
L 568.187795 216.566232 
L 568.187795 216.566232 
L 545.901311 216.566232 
z
" clip-path="url(#pecc6d2dbf0)" style="fill: #cccccc; stroke: #ffffff; stroke-linejoin: miter"/>
   </g>
   <g id="patch_18">
    <path d="M 577.739145 216.566232 
L 600.025629 216.566232 
L 600.025629 221.239895 
L 577.739145 221.239895 
z
" clip-path="url(#pecc6d2dbf0)" style="fill: #d62728; stroke: #ffffff; stroke-linejoin: miter"/>
   </g>
   <g id="patch_19">
    <path d="M 609.576979 216.566232 
L 631.863463 216.566232 
L 631.863463 221.576736 
L 609.576979 221.576736 
z
" clip-path="url(#pecc6d2dbf0)" style="fill: #d62728; stroke: #ffffff; stroke-linejoin: miter"/>
   </g>
   <g id="patch_20">
    <path d="M 641.414813 216.566232 
L 663.701297 216.566232 
L 663.701297 223.246904 
L 641.414813 223.246904 
z
" clip-path="url(#pecc6d2dbf0)" style="fill: #d62728; stroke: #ffffff; stroke-linejoin: miter"/>
   </g>
   <g id="patch_21">
    <path d="M 673.252647 216.566232 
L 695.539131 216.566232 
L 695.539131 224.580232 
L 673.252647 224.580232 
z
" clip-path="url(#pecc6d2dbf0)" style="fill: #d62728; stroke: #ffffff; stroke-linejoin: miter"/>
   </g>
   <g id="patch_22">
    <path d="M 705.090481 216.566232 
L 727.376965 216.566232 
L 727.376965 225.071457 
L 705.090481 225.071457 
z
" clip-path="url(#pecc6d2dbf0)" style="fill: #d62728; stroke: #ffffff; stroke-linejoin: miter"/>
   </g>
   <g id="patch_23">
    <path d="M 736.928316 216.566232 
L 759.214799 216.566232 
L 759.214799 226.2504 
L 736.928316 226.2504 
z
" clip-path="url(#pecc6d2dbf0)" style="fill: #d62728; stroke: #ffffff; stroke-linejoin: miter"/>
   </g>
   <g id="patch_24">
    <path d="M 768.76615 216.566232 
L 791.052633 216.566232 
L 791.052633 230.138102 
L 768.76615 230.138102 
z
" clip-path="url(#pecc6d2dbf0)" style="fill: #d62728; stroke: #ffffff; stroke-linejoin: miter"/>
   </g>
   <g id="patch_25">
    <path d="M 800.603984 216.566232 
L 822.890468 216.566232 
L 822.890468 230.601258 
L 800.603984 230.601258 
z
" clip-path="url(#pecc6d2dbf0)" style="fill: #d62728; stroke: #ffffff; stroke-linejoin: miter"/>
   </g>
   <g id="patch_26">
    <path d="M 832.441818 216.566232 
L 854.728302 216.566232 
L 854.728302 238.502977 
L 832.441818 238.502977 
z
" clip-path="url(#pecc6d2dbf0)" style="fill: #d62728; stroke: #ffffff; stroke-linejoin: miter"/>
   </g>
   <g id="patch_27">
    <path d="M 864.279652 216.566232 
L 886.566136 216.566232 
L 886.566136 245.815225 
L 864.279652 245.815225 
z
" clip-path="url(#pecc6d2dbf0)" style="fill: #d62728; stroke: #ffffff; stroke-linejoin: miter"/>
   </g>
   <g id="patch_28">
    <path d="M 896.117486 216.566232 
L 918.40397 216.566232 
L 918.40397 252.650283 
L 896.117486 252.650283 
z
" clip-path="url(#pecc6d2dbf0)" style="fill: #d62728; stroke: #ffffff; stroke-linejoin: miter"/>
   </g>
   <g id="patch_29">
    <path d="M 927.95532 216.566232 
L 950.241804 216.566232 
L 950.241804 282.348397 
L 927.95532 282.348397 
z
" clip-path="url(#pecc6d2dbf0)" style="fill: #d62728; stroke: #ffffff; stroke-linejoin: miter"/>
   </g>
   <g id="line2d_46">
    <path d="M 57.668125 216.566232 
L 992.745313 216.566232 
" clip-path="url(#pecc6d2dbf0)" style="fill: none; stroke: #000000; stroke-width: 1.5; stroke-linecap: square"/>
   </g>
   <g id="patch_30">
    <path d="M 57.668125 363.934001 
L 57.668125 55.163438 
" style="fill: none; stroke: #000000; stroke-width: 0.8; stroke-linejoin: miter; stroke-linecap: square"/>
   </g>
   <g id="patch_31">
    <path d="M 992.745313 363.934001 
L 992.745313 55.163438 
" style="fill: none; stroke: #000000; stroke-width: 0.8; stroke-linejoin: miter; stroke-linecap: square"/>
   </g>
   <g id="patch_32">
    <path d="M 57.668125 363.934001 
L 992.745313 363.934001 
" style="fill: none; stroke: #000000; stroke-width: 0.8; stroke-linejoin: miter; stroke-linecap: square"/>
   </g>
   <g id="patch_33">
    <path d="M 57.668125 55.163437 
L 992.745313 55.163437 
" style="fill: none; stroke: #000000; stroke-width: 0.8; stroke-linejoin: miter; stroke-linecap: square"/>
   </g>
   <g id="text_38">
    <!-- +88.9% -->
    <g transform="translate(113.393 88.808889) rotate(-90) scale(0.08 -0.08)">
     <defs>
      <path id="DejaVuSans-Bold-e" d="M 3053 4013 
L 3053 2375 
L 4684 2375 
L 4684 1638 
L 3053 1638 
L 3053 0 
L 2309 0 
L 2309 1638 
L 678 1638 
L 678 2375 
L 2309 2375 
L 2309 4013 
L 3053 4013 
z
" transform="scale(0.015625)"/>
      <path id="DejaVuSans-Bold-1b" d="M 2228 2088 
Q 1891 2088 1709 1903 
Q 1528 1719 1528 1375 
Q 1528 1031 1709 848 
Q 1891 666 2228 666 
Q 2563 666 2741 848 
Q 2919 1031 2919 1375 
Q 2919 1722 2741 1905 
Q 2563 2088 2228 2088 
z
M 1350 2484 
Q 925 2613 709 2878 
Q 494 3144 494 3541 
Q 494 4131 934 4440 
Q 1375 4750 2228 4750 
Q 3075 4750 3515 4442 
Q 3956 4134 3956 3541 
Q 3956 3144 3739 2878 
Q 3522 2613 3097 2484 
Q 3572 2353 3814 2058 
Q 4056 1763 4056 1313 
Q 4056 619 3595 264 
Q 3134 -91 2228 -91 
Q 1319 -91 855 264 
Q 391 619 391 1313 
Q 391 1763 633 2058 
Q 875 2353 1350 2484 
z
M 1631 3419 
Q 1631 3141 1786 2991 
Q 1941 2841 2228 2841 
Q 2509 2841 2662 2991 
Q 2816 3141 2816 3419 
Q 2816 3697 2662 3845 
Q 2509 3994 2228 3994 
Q 1941 3994 1786 3844 
Q 1631 3694 1631 3419 
z
" transform="scale(0.015625)"/>
      <path id="DejaVuSans-Bold-11" d="M 653 1209 
L 1778 1209 
L 1778 0 
L 653 0 
L 653 1209 
z
" transform="scale(0.015625)"/>
      <path id="DejaVuSans-Bold-1c" d="M 641 103 
L 641 966 
Q 928 831 1190 764 
Q 1453 697 1709 697 
Q 2247 697 2547 995 
Q 2847 1294 2900 1881 
Q 2688 1725 2447 1647 
Q 2206 1569 1925 1569 
Q 1209 1569 770 1986 
Q 331 2403 331 3084 
Q 331 3838 820 4291 
Q 1309 4744 2131 4744 
Q 3044 4744 3544 4128 
Q 4044 3513 4044 2388 
Q 4044 1231 3459 570 
Q 2875 -91 1856 -91 
Q 1528 -91 1228 -42 
Q 928 6 641 103 
z
M 2125 2350 
Q 2441 2350 2600 2554 
Q 2759 2759 2759 3169 
Q 2759 3575 2600 3781 
Q 2441 3988 2125 3988 
Q 1809 3988 1650 3781 
Q 1491 3575 1491 3169 
Q 1491 2759 1650 2554 
Q 1809 2350 2125 2350 
z
" transform="scale(0.015625)"/>
     </defs>
     <use xlink:href="#DejaVuSans-Bold-e"/>
     <use xlink:href="#DejaVuSans-Bold-1b" transform="translate(83.796875 0)"/>
     <use xlink:href="#DejaVuSans-Bold-1b" transform="translate(153.375 0)"/>
     <use xlink:href="#DejaVuSans-Bold-11" transform="translate(222.953125 0)"/>
     <use xlink:href="#DejaVuSans-Bold-1c" transform="translate(260.9375 0)"/>
     <use xlink:href="#DejaVuSans-Bold-8" transform="translate(330.515625 0)"/>
    </g>
   </g>
   <g id="text_39">
    <!-- +82.1% -->
    <g transform="translate(145.230835 98.282532) rotate(-90) scale(0.08 -0.08)">
     <defs>
      <path id="DejaVuSans-Bold-15" d="M 1844 884 
L 3897 884 
L 3897 0 
L 506 0 
L 506 884 
L 2209 2388 
Q 2438 2594 2547 2791 
Q 2656 2988 2656 3200 
Q 2656 3528 2436 3728 
Q 2216 3928 1850 3928 
Q 1569 3928 1234 3808 
Q 900 3688 519 3450 
L 519 4475 
Q 925 4609 1322 4679 
Q 1719 4750 2100 4750 
Q 2938 4750 3402 4381 
Q 3866 4013 3866 3353 
Q 3866 2972 3669 2642 
Q 3472 2313 2841 1759 
L 1844 884 
z
" transform="scale(0.015625)"/>
      <path id="DejaVuSans-Bold-14" d="M 750 831 
L 1813 831 
L 1813 3847 
L 722 3622 
L 722 4441 
L 1806 4666 
L 2950 4666 
L 2950 831 
L 4013 831 
L 4013 0 
L 750 0 
L 750 831 
z
" transform="scale(0.015625)"/>
     </defs>
     <use xlink:href="#DejaVuSans-Bold-e"/>
     <use xlink:href="#DejaVuSans-Bold-1b" transform="translate(83.796875 0)"/>
     <use xlink:href="#DejaVuSans-Bold-15" transform="translate(153.375 0)"/>
     <use xlink:href="#DejaVuSans-Bold-11" transform="translate(222.953125 0)"/>
     <use xlink:href="#DejaVuSans-Bold-14" transform="translate(260.9375 0)"/>
     <use xlink:href="#DejaVuSans-Bold-8" transform="translate(330.515625 0)"/>
    </g>
   </g>
   <g id="text_40">
    <!-- +69.7% -->
    <g transform="translate(177.068669 115.742103) rotate(-90) scale(0.08 -0.08)">
     <defs>
      <path id="DejaVuSans-Bold-19" d="M 2316 2303 
Q 2000 2303 1842 2098 
Q 1684 1894 1684 1484 
Q 1684 1075 1842 870 
Q 2000 666 2316 666 
Q 2634 666 2792 870 
Q 2950 1075 2950 1484 
Q 2950 1894 2792 2098 
Q 2634 2303 2316 2303 
z
M 3803 4544 
L 3803 3681 
Q 3506 3822 3243 3889 
Q 2981 3956 2731 3956 
Q 2194 3956 1894 3657 
Q 1594 3359 1544 2772 
Q 1750 2925 1990 3001 
Q 2231 3078 2516 3078 
Q 3231 3078 3670 2659 
Q 4109 2241 4109 1563 
Q 4109 813 3618 361 
Q 3128 -91 2303 -91 
Q 1394 -91 895 523 
Q 397 1138 397 2266 
Q 397 3422 980 4083 
Q 1563 4744 2578 4744 
Q 2900 4744 3203 4694 
Q 3506 4644 3803 4544 
z
" transform="scale(0.015625)"/>
      <path id="DejaVuSans-Bold-1a" d="M 428 4666 
L 3944 4666 
L 3944 3988 
L 2125 0 
L 953 0 
L 2675 3781 
L 428 3781 
L 428 4666 
z
" transform="scale(0.015625)"/>
     </defs>
     <use xlink:href="#DejaVuSans-Bold-e"/>
     <use xlink:href="#DejaVuSans-Bold-19" transform="translate(83.796875 0)"/>
     <use xlink:href="#DejaVuSans-Bold-1c" transform="translate(153.375 0)"/>
     <use xlink:href="#DejaVuSans-Bold-11" transform="translate(222.953125 0)"/>
     <use xlink:href="#DejaVuSans-Bold-1a" transform="translate(260.9375 0)"/>
     <use xlink:href="#DejaVuSans-Bold-8" transform="translate(330.515625 0)"/>
    </g>
   </g>
   <g id="text_41">
    <!-- +28.6% -->
    <g transform="translate(208.906503 173.468164) rotate(-90) scale(0.08 -0.08)">
     <use xlink:href="#DejaVuSans-Bold-e"/>
     <use xlink:href="#DejaVuSans-Bold-15" transform="translate(83.796875 0)"/>
     <use xlink:href="#DejaVuSans-Bold-1b" transform="translate(153.375 0)"/>
     <use xlink:href="#DejaVuSans-Bold-11" transform="translate(222.953125 0)"/>
     <use xlink:href="#DejaVuSans-Bold-19" transform="translate(260.9375 0)"/>
     <use xlink:href="#DejaVuSans-Bold-8" transform="translate(330.515625 0)"/>
    </g>
   </g>
   <g id="text_42">
    <!-- +6.7% -->
    <g transform="translate(240.744337 204.20487) rotate(-90) scale(0.08 -0.08)">
     <use xlink:href="#DejaVuSans-Bold-e"/>
     <use xlink:href="#DejaVuSans-Bold-19" transform="translate(83.796875 0)"/>
     <use xlink:href="#DejaVuSans-Bold-11" transform="translate(153.375 0)"/>
     <use xlink:href="#DejaVuSans-Bold-1a" transform="translate(191.359375 0)"/>
     <use xlink:href="#DejaVuSans-Bold-8" transform="translate(260.9375 0)"/>
    </g>
   </g>
   <g id="text_43">
    <!-- +6.3% -->
    <g transform="translate(272.582171 204.780306) rotate(-90) scale(0.08 -0.08)">
     <defs>
      <path id="DejaVuSans-Bold-16" d="M 2981 2516 
Q 3453 2394 3698 2092 
Q 3944 1791 3944 1325 
Q 3944 631 3412 270 
Q 2881 -91 1863 -91 
Q 1503 -91 1142 -33 
Q 781 25 428 141 
L 428 1069 
Q 766 900 1098 814 
Q 1431 728 1753 728 
Q 2231 728 2486 893 
Q 2741 1059 2741 1369 
Q 2741 1688 2480 1852 
Q 2219 2016 1709 2016 
L 1228 2016 
L 1228 2791 
L 1734 2791 
Q 2188 2791 2409 2933 
Q 2631 3075 2631 3366 
Q 2631 3634 2415 3781 
Q 2200 3928 1806 3928 
Q 1516 3928 1219 3862 
Q 922 3797 628 3669 
L 628 4550 
Q 984 4650 1334 4700 
Q 1684 4750 2022 4750 
Q 2931 4750 3382 4451 
Q 3834 4153 3834 3553 
Q 3834 3144 3618 2883 
Q 3403 2622 2981 2516 
z
" transform="scale(0.015625)"/>
     </defs>
     <use xlink:href="#DejaVuSans-Bold-e"/>
     <use xlink:href="#DejaVuSans-Bold-19" transform="translate(83.796875 0)"/>
     <use xlink:href="#DejaVuSans-Bold-11" transform="translate(153.375 0)"/>
     <use xlink:href="#DejaVuSans-Bold-16" transform="translate(191.359375 0)"/>
     <use xlink:href="#DejaVuSans-Bold-8" transform="translate(260.9375 0)"/>
    </g>
   </g>
   <g id="text_44">
    <!-- +5.9% -->
    <g transform="translate(304.420005 205.313637) rotate(-90) scale(0.08 -0.08)">
     <defs>
      <path id="DejaVuSans-Bold-18" d="M 678 4666 
L 3669 4666 
L 3669 3781 
L 1638 3781 
L 1638 3059 
Q 1775 3097 1914 3117 
Q 2053 3138 2203 3138 
Q 3056 3138 3531 2711 
Q 4006 2284 4006 1522 
Q 4006 766 3489 337 
Q 2972 -91 2053 -91 
Q 1656 -91 1267 -14 
Q 878 63 494 219 
L 494 1166 
Q 875 947 1217 837 
Q 1559 728 1863 728 
Q 2300 728 2551 942 
Q 2803 1156 2803 1522 
Q 2803 1891 2551 2103 
Q 2300 2316 1863 2316 
Q 1603 2316 1309 2248 
Q 1016 2181 678 2041 
L 678 4666 
z
" transform="scale(0.015625)"/>
     </defs>
     <use xlink:href="#DejaVuSans-Bold-e"/>
     <use xlink:href="#DejaVuSans-Bold-18" transform="translate(83.796875 0)"/>
     <use xlink:href="#DejaVuSans-Bold-11" transform="translate(153.375 0)"/>
     <use xlink:href="#DejaVuSans-Bold-1c" transform="translate(191.359375 0)"/>
     <use xlink:href="#DejaVuSans-Bold-8" transform="translate(260.9375 0)"/>
    </g>
   </g>
   <g id="text_45">
    <!-- +4.5% -->
    <g transform="translate(336.257839 207.180295) rotate(-90) scale(0.08 -0.08)">
     <defs>
      <path id="DejaVuSans-Bold-17" d="M 2356 3675 
L 1038 1722 
L 2356 1722 
L 2356 3675 
z
M 2156 4666 
L 3494 4666 
L 3494 1722 
L 4159 1722 
L 4159 850 
L 3494 850 
L 3494 0 
L 2356 0 
L 2356 850 
L 288 850 
L 288 1881 
L 2156 4666 
z
" transform="scale(0.015625)"/>
     </defs>
     <use xlink:href="#DejaVuSans-Bold-e"/>
     <use xlink:href="#DejaVuSans-Bold-17" transform="translate(83.796875 0)"/>
     <use xlink:href="#DejaVuSans-Bold-11" transform="translate(153.375 0)"/>
     <use xlink:href="#DejaVuSans-Bold-18" transform="translate(191.359375 0)"/>
     <use xlink:href="#DejaVuSans-Bold-8" transform="translate(260.9375 0)"/>
    </g>
   </g>
   <g id="text_46">
    <!-- +3.8% -->
    <g transform="translate(368.095673 208.162747) rotate(-90) scale(0.08 -0.08)">
     <use xlink:href="#DejaVuSans-Bold-e"/>
     <use xlink:href="#DejaVuSans-Bold-16" transform="translate(83.796875 0)"/>
     <use xlink:href="#DejaVuSans-Bold-11" transform="translate(153.375 0)"/>
     <use xlink:href="#DejaVuSans-Bold-1b" transform="translate(191.359375 0)"/>
     <use xlink:href="#DejaVuSans-Bold-8" transform="translate(260.9375 0)"/>
    </g>
   </g>
   <g id="text_47">
    <!-- -3.3% -->
    <g transform="translate(590.960512 249.747395) rotate(-90) scale(0.08 -0.08)">
     <defs>
      <path id="DejaVuSans-Bold-10" d="M 347 2297 
L 2309 2297 
L 2309 1388 
L 347 1388 
L 347 2297 
z
" transform="scale(0.015625)"/>
     </defs>
     <use xlink:href="#DejaVuSans-Bold-10"/>
     <use xlink:href="#DejaVuSans-Bold-16" transform="translate(41.5 0)"/>
     <use xlink:href="#DejaVuSans-Bold-11" transform="translate(111.078125 0)"/>
     <use xlink:href="#DejaVuSans-Bold-16" transform="translate(149.0625 0)"/>
     <use xlink:href="#DejaVuSans-Bold-8" transform="translate(218.640625 0)"/>
    </g>
   </g>
   <g id="text_48">
    <!-- -3.6% -->
    <g transform="translate(622.798346 250.084236) rotate(-90) scale(0.08 -0.08)">
     <use xlink:href="#DejaVuSans-Bold-10"/>
     <use xlink:href="#DejaVuSans-Bold-16" transform="translate(41.5 0)"/>
     <use xlink:href="#DejaVuSans-Bold-11" transform="translate(111.078125 0)"/>
     <use xlink:href="#DejaVuSans-Bold-19" transform="translate(149.0625 0)"/>
     <use xlink:href="#DejaVuSans-Bold-8" transform="translate(218.640625 0)"/>
    </g>
   </g>
   <g id="text_49">
    <!-- -4.8% -->
    <g transform="translate(654.63618 251.754404) rotate(-90) scale(0.08 -0.08)">
     <use xlink:href="#DejaVuSans-Bold-10"/>
     <use xlink:href="#DejaVuSans-Bold-17" transform="translate(41.5 0)"/>
     <use xlink:href="#DejaVuSans-Bold-11" transform="translate(111.078125 0)"/>
     <use xlink:href="#DejaVuSans-Bold-1b" transform="translate(149.0625 0)"/>
     <use xlink:href="#DejaVuSans-Bold-8" transform="translate(218.640625 0)"/>
    </g>
   </g>
   <g id="text_50">
    <!-- -5.7% -->
    <g transform="translate(686.474014 253.087732) rotate(-90) scale(0.08 -0.08)">
     <use xlink:href="#DejaVuSans-Bold-10"/>
     <use xlink:href="#DejaVuSans-Bold-18" transform="translate(41.5 0)"/>
     <use xlink:href="#DejaVuSans-Bold-11" transform="translate(111.078125 0)"/>
     <use xlink:href="#DejaVuSans-Bold-1a" transform="translate(149.0625 0)"/>
     <use xlink:href="#DejaVuSans-Bold-8" transform="translate(218.640625 0)"/>
    </g>
   </g>
   <g id="text_51">
    <!-- -6.1% -->
    <g transform="translate(718.311848 253.578957) rotate(-90) scale(0.08 -0.08)">
     <use xlink:href="#DejaVuSans-Bold-10"/>
     <use xlink:href="#DejaVuSans-Bold-19" transform="translate(41.5 0)"/>
     <use xlink:href="#DejaVuSans-Bold-11" transform="translate(111.078125 0)"/>
     <use xlink:href="#DejaVuSans-Bold-14" transform="translate(149.0625 0)"/>
     <use xlink:href="#DejaVuSans-Bold-8" transform="translate(218.640625 0)"/>
    </g>
   </g>
   <g id="text_52">
    <!-- -6.9% -->
    <g transform="translate(750.149682 254.7579) rotate(-90) scale(0.08 -0.08)">
     <use xlink:href="#DejaVuSans-Bold-10"/>
     <use xlink:href="#DejaVuSans-Bold-19" transform="translate(41.5 0)"/>
     <use xlink:href="#DejaVuSans-Bold-11" transform="translate(111.078125 0)"/>
     <use xlink:href="#DejaVuSans-Bold-1c" transform="translate(149.0625 0)"/>
     <use xlink:href="#DejaVuSans-Bold-8" transform="translate(218.640625 0)"/>
    </g>
   </g>
   <g id="text_53">
    <!-- -9.7% -->
    <g transform="translate(781.987517 258.645602) rotate(-90) scale(0.08 -0.08)">
     <use xlink:href="#DejaVuSans-Bold-10"/>
     <use xlink:href="#DejaVuSans-Bold-1c" transform="translate(41.5 0)"/>
     <use xlink:href="#DejaVuSans-Bold-11" transform="translate(111.078125 0)"/>
     <use xlink:href="#DejaVuSans-Bold-1a" transform="translate(149.0625 0)"/>
     <use xlink:href="#DejaVuSans-Bold-8" transform="translate(218.640625 0)"/>
    </g>
   </g>
   <g id="text_54">
    <!-- -10.0% -->
    <g transform="translate(813.825351 264.675008) rotate(-90) scale(0.08 -0.08)">
     <defs>
      <path id="DejaVuSans-Bold-13" d="M 2944 2338 
Q 2944 3213 2780 3570 
Q 2616 3928 2228 3928 
Q 1841 3928 1675 3570 
Q 1509 3213 1509 2338 
Q 1509 1453 1675 1090 
Q 1841 728 2228 728 
Q 2613 728 2778 1090 
Q 2944 1453 2944 2338 
z
M 4147 2328 
Q 4147 1169 3647 539 
Q 3147 -91 2228 -91 
Q 1306 -91 806 539 
Q 306 1169 306 2328 
Q 306 3491 806 4120 
Q 1306 4750 2228 4750 
Q 3147 4750 3647 4120 
Q 4147 3491 4147 2328 
z
" transform="scale(0.015625)"/>
     </defs>
     <use xlink:href="#DejaVuSans-Bold-10"/>
     <use xlink:href="#DejaVuSans-Bold-14" transform="translate(41.5 0)"/>
     <use xlink:href="#DejaVuSans-Bold-13" transform="translate(111.078125 0)"/>
     <use xlink:href="#DejaVuSans-Bold-11" transform="translate(180.65625 0)"/>
     <use xlink:href="#DejaVuSans-Bold-13" transform="translate(218.640625 0)"/>
     <use xlink:href="#DejaVuSans-Bold-8" transform="translate(288.21875 0)"/>
    </g>
   </g>
   <g id="text_55">
    <!-- -15.6% -->
    <g transform="translate(845.663185 272.576727) rotate(-90) scale(0.08 -0.08)">
     <use xlink:href="#DejaVuSans-Bold-10"/>
     <use xlink:href="#DejaVuSans-Bold-14" transform="translate(41.5 0)"/>
     <use xlink:href="#DejaVuSans-Bold-18" transform="translate(111.078125 0)"/>
     <use xlink:href="#DejaVuSans-Bold-11" transform="translate(180.65625 0)"/>
     <use xlink:href="#DejaVuSans-Bold-19" transform="translate(218.640625 0)"/>
     <use xlink:href="#DejaVuSans-Bold-8" transform="translate(288.21875 0)"/>
    </g>
   </g>
   <g id="text_56">
    <!-- -20.8% -->
    <g transform="translate(877.501019 279.888975) rotate(-90) scale(0.08 -0.08)">
     <use xlink:href="#DejaVuSans-Bold-10"/>
     <use xlink:href="#DejaVuSans-Bold-15" transform="translate(41.5 0)"/>
     <use xlink:href="#DejaVuSans-Bold-13" transform="translate(111.078125 0)"/>
     <use xlink:href="#DejaVuSans-Bold-11" transform="translate(180.65625 0)"/>
     <use xlink:href="#DejaVuSans-Bold-1b" transform="translate(218.640625 0)"/>
     <use xlink:href="#DejaVuSans-Bold-8" transform="translate(288.21875 0)"/>
    </g>
   </g>
   <g id="text_57">
    <!-- -25.7% -->
    <g transform="translate(909.338853 286.724033) rotate(-90) scale(0.08 -0.08)">
     <use xlink:href="#DejaVuSans-Bold-10"/>
     <use xlink:href="#DejaVuSans-Bold-15" transform="translate(41.5 0)"/>
     <use xlink:href="#DejaVuSans-Bold-18" transform="translate(111.078125 0)"/>
     <use xlink:href="#DejaVuSans-Bold-11" transform="translate(180.65625 0)"/>
     <use xlink:href="#DejaVuSans-Bold-1a" transform="translate(218.640625 0)"/>
     <use xlink:href="#DejaVuSans-Bold-8" transform="translate(288.21875 0)"/>
    </g>
   </g>
   <g id="text_58">
    <!-- -46.9% -->
    <g transform="translate(941.176687 316.422147) rotate(-90) scale(0.08 -0.08)">
     <use xlink:href="#DejaVuSans-Bold-10"/>
     <use xlink:href="#DejaVuSans-Bold-17" transform="translate(41.5 0)"/>
     <use xlink:href="#DejaVuSans-Bold-19" transform="translate(111.078125 0)"/>
     <use xlink:href="#DejaVuSans-Bold-11" transform="translate(180.65625 0)"/>
     <use xlink:href="#DejaVuSans-Bold-1c" transform="translate(218.640625 0)"/>
     <use xlink:href="#DejaVuSans-Bold-8" transform="translate(288.21875 0)"/>
    </g>
   </g>
   <g id="text_59">
    <!-- Performance Delta: Agentic vs. Single Pass -->
    <g transform="translate(330.269219 20.959062) scale(0.16 -0.16)">
     <defs>
      <path id="DejaVuSans-Bold-33" d="M 588 4666 
L 2584 4666 
Q 3475 4666 3951 4270 
Q 4428 3875 4428 3144 
Q 4428 2409 3951 2014 
Q 3475 1619 2584 1619 
L 1791 1619 
L 1791 0 
L 588 0 
L 588 4666 
z
M 1791 3794 
L 1791 2491 
L 2456 2491 
Q 2806 2491 2997 2661 
Q 3188 2831 3188 3144 
Q 3188 3456 2997 3625 
Q 2806 3794 2456 3794 
L 1791 3794 
z
" transform="scale(0.015625)"/>
      <path id="DejaVuSans-Bold-55" d="M 3138 2547 
Q 2991 2616 2845 2648 
Q 2700 2681 2553 2681 
Q 2122 2681 1889 2404 
Q 1656 2128 1656 1613 
L 1656 0 
L 538 0 
L 538 3500 
L 1656 3500 
L 1656 2925 
Q 1872 3269 2151 3426 
Q 2431 3584 2822 3584 
Q 2878 3584 2943 3579 
Q 3009 3575 3134 3559 
L 3138 2547 
z
" transform="scale(0.015625)"/>
      <path id="DejaVuSans-Bold-49" d="M 2841 4863 
L 2841 4128 
L 2222 4128 
Q 1984 4128 1890 4042 
Q 1797 3956 1797 3744 
L 1797 3500 
L 2753 3500 
L 2753 2700 
L 1797 2700 
L 1797 0 
L 678 0 
L 678 2700 
L 122 2700 
L 122 3500 
L 678 3500 
L 678 3744 
Q 678 4316 997 4589 
Q 1316 4863 1984 4863 
L 2841 4863 
z
" transform="scale(0.015625)"/>
      <path id="DejaVuSans-Bold-52" d="M 2203 2784 
Q 1831 2784 1636 2517 
Q 1441 2250 1441 1747 
Q 1441 1244 1636 976 
Q 1831 709 2203 709 
Q 2569 709 2762 976 
Q 2956 1244 2956 1747 
Q 2956 2250 2762 2517 
Q 2569 2784 2203 2784 
z
M 2203 3584 
Q 3106 3584 3614 3096 
Q 4122 2609 4122 1747 
Q 4122 884 3614 396 
Q 3106 -91 2203 -91 
Q 1297 -91 786 396 
Q 275 884 275 1747 
Q 275 2609 786 3096 
Q 1297 3584 2203 3584 
z
" transform="scale(0.015625)"/>
      <path id="DejaVuSans-Bold-50" d="M 3781 2919 
Q 3994 3244 4286 3414 
Q 4578 3584 4928 3584 
Q 5531 3584 5847 3212 
Q 6163 2841 6163 2131 
L 6163 0 
L 5038 0 
L 5038 1825 
Q 5041 1866 5042 1909 
Q 5044 1953 5044 2034 
Q 5044 2406 4934 2573 
Q 4825 2741 4581 2741 
Q 4263 2741 4089 2478 
Q 3916 2216 3909 1719 
L 3909 0 
L 2784 0 
L 2784 1825 
Q 2784 2406 2684 2573 
Q 2584 2741 2328 2741 
Q 2006 2741 1831 2477 
Q 1656 2213 1656 1722 
L 1656 0 
L 531 0 
L 531 3500 
L 1656 3500 
L 1656 2988 
Q 1863 3284 2130 3434 
Q 2397 3584 2719 3584 
Q 3081 3584 3359 3409 
Q 3638 3234 3781 2919 
z
" transform="scale(0.015625)"/>
      <path id="DejaVuSans-Bold-51" d="M 4056 2131 
L 4056 0 
L 2931 0 
L 2931 347 
L 2931 1631 
Q 2931 2084 2911 2256 
Q 2891 2428 2841 2509 
Q 2775 2619 2662 2680 
Q 2550 2741 2406 2741 
Q 2056 2741 1856 2470 
Q 1656 2200 1656 1722 
L 1656 0 
L 538 0 
L 538 3500 
L 1656 3500 
L 1656 2988 
Q 1909 3294 2193 3439 
Q 2478 3584 2822 3584 
Q 3428 3584 3742 3212 
Q 4056 2841 4056 2131 
z
" transform="scale(0.015625)"/>
      <path id="DejaVuSans-Bold-46" d="M 3366 3391 
L 3366 2478 
Q 3138 2634 2908 2709 
Q 2678 2784 2431 2784 
Q 1963 2784 1702 2511 
Q 1441 2238 1441 1747 
Q 1441 1256 1702 982 
Q 1963 709 2431 709 
Q 2694 709 2930 787 
Q 3166 866 3366 1019 
L 3366 103 
Q 3103 6 2833 -42 
Q 2563 -91 2291 -91 
Q 1344 -91 809 395 
Q 275 881 275 1747 
Q 275 2613 809 3098 
Q 1344 3584 2291 3584 
Q 2566 3584 2833 3536 
Q 3100 3488 3366 3391 
z
" transform="scale(0.015625)"/>
      <path id="DejaVuSans-Bold-1d" d="M 716 3500 
L 1844 3500 
L 1844 2291 
L 716 2291 
L 716 3500 
z
M 716 1209 
L 1844 1209 
L 1844 0 
L 716 0 
L 716 1209 
z
" transform="scale(0.015625)"/>
      <path id="DejaVuSans-Bold-24" d="M 3419 850 
L 1538 850 
L 1241 0 
L 31 0 
L 1759 4666 
L 3194 4666 
L 4922 0 
L 3713 0 
L 3419 850 
z
M 1838 1716 
L 3116 1716 
L 2478 3572 
L 1838 1716 
z
" transform="scale(0.015625)"/>
      <path id="DejaVuSans-Bold-4a" d="M 2919 594 
Q 2688 288 2409 144 
Q 2131 0 1766 0 
Q 1125 0 706 504 
Q 288 1009 288 1791 
Q 288 2575 706 3076 
Q 1125 3578 1766 3578 
Q 2131 3578 2409 3434 
Q 2688 3291 2919 2981 
L 2919 3500 
L 4044 3500 
L 4044 353 
Q 4044 -491 3511 -936 
Q 2978 -1381 1966 -1381 
Q 1638 -1381 1331 -1331 
Q 1025 -1281 716 -1178 
L 716 -306 
Q 1009 -475 1290 -558 
Q 1572 -641 1856 -641 
Q 2406 -641 2662 -400 
Q 2919 -159 2919 353 
L 2919 594 
z
M 2181 2772 
Q 1834 2772 1640 2515 
Q 1447 2259 1447 1791 
Q 1447 1309 1634 1061 
Q 1822 813 2181 813 
Q 2531 813 2725 1069 
Q 2919 1325 2919 1791 
Q 2919 2259 2725 2515 
Q 2531 2772 2181 2772 
z
" transform="scale(0.015625)"/>
      <path id="DejaVuSans-Bold-4c" d="M 538 3500 
L 1656 3500 
L 1656 0 
L 538 0 
L 538 3500 
z
M 538 4863 
L 1656 4863 
L 1656 3950 
L 538 3950 
L 538 4863 
z
" transform="scale(0.015625)"/>
      <path id="DejaVuSans-Bold-59" d="M 97 3500 
L 1216 3500 
L 2088 1081 
L 2956 3500 
L 4078 3500 
L 2700 0 
L 1472 0 
L 97 3500 
z
" transform="scale(0.015625)"/>
      <path id="DejaVuSans-Bold-56" d="M 3272 3391 
L 3272 2541 
Q 2913 2691 2578 2766 
Q 2244 2841 1947 2841 
Q 1628 2841 1473 2761 
Q 1319 2681 1319 2516 
Q 1319 2381 1436 2309 
Q 1553 2238 1856 2203 
L 2053 2175 
Q 2913 2066 3209 1816 
Q 3506 1566 3506 1031 
Q 3506 472 3093 190 
Q 2681 -91 1863 -91 
Q 1516 -91 1145 -36 
Q 775 19 384 128 
L 384 978 
Q 719 816 1070 734 
Q 1422 653 1784 653 
Q 2113 653 2278 743 
Q 2444 834 2444 1013 
Q 2444 1163 2330 1236 
Q 2216 1309 1875 1350 
L 1678 1375 
Q 931 1469 631 1722 
Q 331 1975 331 2491 
Q 331 3047 712 3315 
Q 1094 3584 1881 3584 
Q 2191 3584 2531 3537 
Q 2872 3491 3272 3391 
z
" transform="scale(0.015625)"/>
      <path id="DejaVuSans-Bold-36" d="M 3834 4519 
L 3834 3531 
Q 3450 3703 3084 3790 
Q 2719 3878 2394 3878 
Q 1963 3878 1756 3759 
Q 1550 3641 1550 3391 
Q 1550 3203 1689 3098 
Q 1828 2994 2194 2919 
L 2706 2816 
Q 3484 2659 3812 2340 
Q 4141 2022 4141 1434 
Q 4141 663 3683 286 
Q 3225 -91 2284 -91 
Q 1841 -91 1394 -6 
Q 947 78 500 244 
L 500 1259 
Q 947 1022 1364 901 
Q 1781 781 2169 781 
Q 2563 781 2772 912 
Q 2981 1044 2981 1288 
Q 2981 1506 2839 1625 
Q 2697 1744 2272 1838 
L 1806 1941 
Q 1106 2091 782 2419 
Q 459 2747 459 3303 
Q 459 4000 909 4375 
Q 1359 4750 2203 4750 
Q 2588 4750 2994 4692 
Q 3400 4634 3834 4519 
z
" transform="scale(0.015625)"/>
     </defs>
     <use xlink:href="#DejaVuSans-Bold-33"/>
     <use xlink:href="#DejaVuSans-Bold-48" transform="translate(73.296875 0)"/>
     <use xlink:href="#DejaVuSans-Bold-55" transform="translate(141.125 0)"/>
     <use xlink:href="#DejaVuSans-Bold-49" transform="translate(190.4375 0)"/>
     <use xlink:href="#DejaVuSans-Bold-52" transform="translate(233.9375 0)"/>
     <use xlink:href="#DejaVuSans-Bold-55" transform="translate(302.640625 0)"/>
     <use xlink:href="#DejaVuSans-Bold-50" transform="translate(351.953125 0)"/>
     <use xlink:href="#DejaVuSans-Bold-44" transform="translate(456.15625 0)"/>
     <use xlink:href="#DejaVuSans-Bold-51" transform="translate(523.640625 0)"/>
     <use xlink:href="#DejaVuSans-Bold-46" transform="translate(594.828125 0)"/>
     <use xlink:href="#DejaVuSans-Bold-48" transform="translate(654.109375 0)"/>
     <use xlink:href="#DejaVuSans-Bold-3" transform="translate(721.9375 0)"/>
     <use xlink:href="#DejaVuSans-Bold-27" transform="translate(756.75 0)"/>
     <use xlink:href="#DejaVuSans-Bold-48" transform="translate(839.765625 0)"/>
     <use xlink:href="#DejaVuSans-Bold-4f" transform="translate(907.59375 0)"/>
     <use xlink:href="#DejaVuSans-Bold-57" transform="translate(941.875 0)"/>
     <use xlink:href="#DejaVuSans-Bold-44" transform="translate(989.671875 0)"/>
     <use xlink:href="#DejaVuSans-Bold-1d" transform="translate(1057.15625 0)"/>
     <use xlink:href="#DejaVuSans-Bold-3" transform="translate(1097.140625 0)"/>
     <use xlink:href="#DejaVuSans-Bold-24" transform="translate(1131.953125 0)"/>
     <use xlink:href="#DejaVuSans-Bold-4a" transform="translate(1209.34375 0)"/>
     <use xlink:href="#DejaVuSans-Bold-48" transform="translate(1280.921875 0)"/>
     <use xlink:href="#DejaVuSans-Bold-51" transform="translate(1348.75 0)"/>
     <use xlink:href="#DejaVuSans-Bold-57" transform="translate(1419.9375 0)"/>
     <use xlink:href="#DejaVuSans-Bold-4c" transform="translate(1467.734375 0)"/>
     <use xlink:href="#DejaVuSans-Bold-46" transform="translate(1502.015625 0)"/>
     <use xlink:href="#DejaVuSans-Bold-3" transform="translate(1561.296875 0)"/>
     <use xlink:href="#DejaVuSans-Bold-59" transform="translate(1596.109375 0)"/>
     <use xlink:href="#DejaVuSans-Bold-56" transform="translate(1661.296875 0)"/>
     <use xlink:href="#DejaVuSans-Bold-11" transform="translate(1720.8125 0)"/>
     <use xlink:href="#DejaVuSans-Bold-3" transform="translate(1758.796875 0)"/>
     <use xlink:href="#DejaVuSans-Bold-36" transform="translate(1793.609375 0)"/>
     <use xlink:href="#DejaVuSans-Bold-4c" transform="translate(1865.625 0)"/>
     <use xlink:href="#DejaVuSans-Bold-51" transform="translate(1899.90625 0)"/>
     <use xlink:href="#DejaVuSans-Bold-4a" transform="translate(1971.09375 0)"/>
     <use xlink:href="#DejaVuSans-Bold-4f" transform="translate(2042.671875 0)"/>
     <use xlink:href="#DejaVuSans-Bold-48" transform="translate(2076.953125 0)"/>
     <use xlink:href="#DejaVuSans-Bold-3" transform="translate(2144.78125 0)"/>
     <use xlink:href="#DejaVuSans-Bold-33" transform="translate(2179.59375 0)"/>
     <use xlink:href="#DejaVuSans-Bold-44" transform="translate(2250.203125 0)"/>
     <use xlink:href="#DejaVuSans-Bold-56" transform="translate(2317.6875 0)"/>
     <use xlink:href="#DejaVuSans-Bold-56" transform="translate(2377.203125 0)"/>
    </g>
    <!-- Model: Gemini 3.1 Pro Preview -->
    <g transform="translate(386.520469 40.163437) scale(0.16 -0.16)">
     <defs>
      <path id="DejaVuSans-Bold-30" d="M 588 4666 
L 2119 4666 
L 3181 2169 
L 4250 4666 
L 5778 4666 
L 5778 0 
L 4641 0 
L 4641 3413 
L 3566 897 
L 2803 897 
L 1728 3413 
L 1728 0 
L 588 0 
L 588 4666 
z
" transform="scale(0.015625)"/>
      <path id="DejaVuSans-Bold-47" d="M 2919 2988 
L 2919 4863 
L 4044 4863 
L 4044 0 
L 2919 0 
L 2919 506 
Q 2688 197 2409 53 
Q 2131 -91 1766 -91 
Q 1119 -91 703 423 
Q 288 938 288 1747 
Q 288 2556 703 3070 
Q 1119 3584 1766 3584 
Q 2128 3584 2408 3439 
Q 2688 3294 2919 2988 
z
M 2181 722 
Q 2541 722 2730 984 
Q 2919 1247 2919 1747 
Q 2919 2247 2730 2509 
Q 2541 2772 2181 2772 
Q 1825 2772 1636 2509 
Q 1447 2247 1447 1747 
Q 1447 1247 1636 984 
Q 1825 722 2181 722 
z
" transform="scale(0.015625)"/>
      <path id="DejaVuSans-Bold-2a" d="M 4781 347 
Q 4331 128 3847 18 
Q 3363 -91 2847 -91 
Q 1681 -91 1000 561 
Q 319 1213 319 2328 
Q 319 3456 1012 4103 
Q 1706 4750 2913 4750 
Q 3378 4750 3804 4662 
Q 4231 4575 4609 4403 
L 4609 3438 
Q 4219 3659 3833 3768 
Q 3447 3878 3059 3878 
Q 2341 3878 1952 3476 
Q 1563 3075 1563 2328 
Q 1563 1588 1938 1184 
Q 2313 781 3003 781 
Q 3191 781 3352 804 
Q 3513 828 3641 878 
L 3641 1784 
L 2906 1784 
L 2906 2591 
L 4781 2591 
L 4781 347 
z
" transform="scale(0.015625)"/>
      <path id="DejaVuSans-Bold-5a" d="M 225 3500 
L 1313 3500 
L 1900 1088 
L 2491 3500 
L 3425 3500 
L 4013 1113 
L 4603 3500 
L 5691 3500 
L 4769 0 
L 3547 0 
L 2956 2406 
L 2369 0 
L 1147 0 
L 225 3500 
z
" transform="scale(0.015625)"/>
     </defs>
     <use xlink:href="#DejaVuSans-Bold-30"/>
     <use xlink:href="#DejaVuSans-Bold-52" transform="translate(99.515625 0)"/>
     <use xlink:href="#DejaVuSans-Bold-47" transform="translate(168.21875 0)"/>
     <use xlink:href="#DejaVuSans-Bold-48" transform="translate(239.796875 0)"/>
     <use xlink:href="#DejaVuSans-Bold-4f" transform="translate(307.625 0)"/>
     <use xlink:href="#DejaVuSans-Bold-1d" transform="translate(341.90625 0)"/>
     <use xlink:href="#DejaVuSans-Bold-3" transform="translate(381.890625 0)"/>
     <use xlink:href="#DejaVuSans-Bold-2a" transform="translate(416.703125 0)"/>
     <use xlink:href="#DejaVuSans-Bold-48" transform="translate(498.78125 0)"/>
     <use xlink:href="#DejaVuSans-Bold-50" transform="translate(566.609375 0)"/>
     <use xlink:href="#DejaVuSans-Bold-4c" transform="translate(670.8125 0)"/>
     <use xlink:href="#DejaVuSans-Bold-51" transform="translate(705.09375 0)"/>
     <use xlink:href="#DejaVuSans-Bold-4c" transform="translate(776.28125 0)"/>
     <use xlink:href="#DejaVuSans-Bold-3" transform="translate(810.5625 0)"/>
     <use xlink:href="#DejaVuSans-Bold-16" transform="translate(845.375 0)"/>
     <use xlink:href="#DejaVuSans-Bold-11" transform="translate(914.953125 0)"/>
     <use xlink:href="#DejaVuSans-Bold-14" transform="translate(952.9375 0)"/>
     <use xlink:href="#DejaVuSans-Bold-3" transform="translate(1022.515625 0)"/>
     <use xlink:href="#DejaVuSans-Bold-33" transform="translate(1057.328125 0)"/>
     <use xlink:href="#DejaVuSans-Bold-55" transform="translate(1130.625 0)"/>
     <use xlink:href="#DejaVuSans-Bold-52" transform="translate(1179.9375 0)"/>
     <use xlink:href="#DejaVuSans-Bold-3" transform="translate(1248.640625 0)"/>
     <use xlink:href="#DejaVuSans-Bold-33" transform="translate(1283.453125 0)"/>
     <use xlink:href="#DejaVuSans-Bold-55" transform="translate(1356.75 0)"/>
     <use xlink:href="#DejaVuSans-Bold-48" transform="translate(1406.0625 0)"/>
     <use xlink:href="#DejaVuSans-Bold-59" transform="translate(1473.890625 0)"/>
     <use xlink:href="#DejaVuSans-Bold-4c" transform="translate(1539.078125 0)"/>
     <use xlink:href="#DejaVuSans-Bold-48" transform="translate(1573.359375 0)"/>
     <use xlink:href="#DejaVuSans-Bold-5a" transform="translate(1641.1875 0)"/>
    </g>
   </g>
  </g>
 </g>
 <defs>
  <clipPath id="pecc6d2dbf0">
   <rect x="57.668125" y="55.163437" width="935.077188" height="308.770563"/>
  </clipPath>
 </defs>
</svg>